<svg id="Inverse_White" data-name="Inverse White" xmlns="http://www.w3.org/2000/svg" viewBox="0 0 560.55 514.35"><polygon points="113.57 67.47 282.15 51.17 408.89 51.17 472.42 38.79 529.09 38.79 540.25 98.89 490.99 153.84 540.25 208.08 473.28 232.34 438.47 305.81 428.63 350.24 450.1 363.25 483.24 341.27 501.85 357.1 461.26 487.82 425.2 492.97 372.44 468.93 319.46 478.83 263.83 464.64 236.31 484.39 199.52 478.83 109.06 472.91 65 486.96 23.39 478.83 13.95 450.08 65 405.77 40.56 375.52 49.15 313.43 80.61 237.12 73.19 197 97.23 137.63 87.78 93.09 113.57 67.47"/><path d="M143.89,390.06l.18-.3-.27-.24c-.53-.46-.39-1.3-.27-1.93a1,1,0,0,1,.09-.34c.07-.69.11-1.43.14-2.21v-.16a3.53,3.53,0,0,0,0-.46v-1.21a1.63,1.63,0,0,0-.08-.44v-.36a3.41,3.41,0,0,1-.1-.54v-.08a1.14,1.14,0,0,0-.09-.26,3.92,3.92,0,0,1-.13-.49,1,1,0,0,1-.11-.28l-.08-.24v5l-1.94-5.12a5.38,5.38,0,0,0-.79-1.45h0l-.43.65-1.5-1.76-.14-.12-.11-.09a3.35,3.35,0,0,0-.51-.42l-.4-.3v-.08l-.06-.05-1.2-.82a10.22,10.22,0,0,0-1.92-.83,1.68,1.68,0,0,1-.09.32l.5.31.2.14a15.62,15.62,0,0,1,1.11,1.19h0l.5.54.09.12.15.23a2.35,2.35,0,0,1,.19.25l.2.39c0,.06,0,.11.07.16a2.3,2.3,0,0,1,.34.66,1.67,1.67,0,0,1,.15.54,1.8,1.8,0,0,1,.1.4v.17a1.66,1.66,0,0,1-.27,1.06,1.4,1.4,0,0,1-.59.59,1.65,1.65,0,0,1-1.27,0,1.48,1.48,0,0,1-.35-.13L135,382h-.9v-.15h-.32v-.4a1.23,1.23,0,0,1-.37-.12h0a1.12,1.12,0,0,1-.31-.1h-.32l-.19-.08h-.24l-.92-.1h-.5l1.12.32-5.23.52h-.57a11.32,11.32,0,0,1-1.43.1l-1,.1-1.1.17a5.87,5.87,0,0,0-1.18.15h-.13a1.58,1.58,0,0,0-.38,0h-.23l-.93.09-.55.06a1.65,1.65,0,0,1-.58.1c-1.42.29-2.81.54-4.17.77l-2.52.45-1,.22h-.21a1.5,1.5,0,0,0-.37.05l-1.41.25h.11l.69.26a1.47,1.47,0,0,1,.42.13,4.27,4.27,0,0,1,.48.13l.27.12h.25c.46.17.84.28,1.17.38h.11c.36.15.72.3,1.08.43s.62.21.89.32c.45.12,1,.3,1.55.49l.13.05a3,3,0,0,0,.41.18l1.78.65.24.1a13.54,13.54,0,0,1,1.38.53c.13,0,.26.09.36.14a7.24,7.24,0,0,1,1,.41l1.09.48,1.59.69c.39.15.84.32,1.3.54s.79.32,1.22.49l.22.08c1,.43,2,.9,3.12,1.46A58.67,58.67,0,0,1,136.4,396l.4.25.56-.3.3-.13.14-.06h0a22.89,22.89,0,0,0,3-2.17A16.89,16.89,0,0,0,143.89,390.06Z" fill="#fff"/><polygon points="141.6 229.34 141.47 229.11 140.12 229.36 140.97 229.47 141.6 229.34" fill="#fff"/><polygon points="172.44 440.59 172.82 440.56 173.04 440.45 172.44 440.59 172.44 440.59" fill="#fff"/><path d="M204,205.86l.89.76C204.7,206.39,204.88,206.17,204,205.86Z" fill="#fff"/><path d="M142.77,232.34l-1.4-.43C141.65,232.34,142.26,232.31,142.77,232.34Z" fill="#fff"/><path d="M235.09,394.42l.46-.15c.48-.27.95-.51,1.44-.73a3.22,3.22,0,0,0-.61.24c-.44.21-.9.42-1.38.62v.08Z" fill="#fff"/><path d="M111.7,230.15a.74.74,0,0,0-.57-.48C111.36,229.85,111.49,230.08,111.7,230.15Z" fill="#fff"/><path d="M272.51,402.25a.69.69,0,0,0,.3-.17l.16-.16c0-.05,0-.1.1-.15a2.16,2.16,0,0,1,.34-.17.62.62,0,0,1,.23-.07h.16c.05.05.08.08.12.08l.1-.08c2.88-1.34,5.61-2.77,8.18-4.26,2.2-1.38,4.34-2.84,6.44-4.38a72.55,72.55,0,0,0,5.74-4.77c1.14-.85,2.2-1.71,3.19-2.61.44-.53.83-1,1.17-1.49.05,0,.07,0,.07-.09a3.26,3.26,0,0,1,.51-.54,2.8,2.8,0,0,1,.37-.48l.07-.08a1.62,1.62,0,0,0,.35-.54,1.57,1.57,0,0,0,.21-.63l.07-.16h.08v-.32c0-.05-.05-.07-.12-.07a.21.21,0,0,0-.18.09v.07a.34.34,0,0,0-.24-.07,6.86,6.86,0,0,0-1-.22h-.47l-.24-.09a6,6,0,0,1-.85,0l-.86-.07h-.39l-.39-.07-3.13-.1c-1.08,0-2.17.07-3.24.14q-3.25.3-6.72.81c-1.13.19-2.29.36-3.47.53a7.25,7.25,0,0,1-1.23.25,1.65,1.65,0,0,1-.54.09l-1.54.34-1.62.42-.83.17-.85.24-1.76.51a.67.67,0,0,0-.31.07h-.15a.81.81,0,0,0,0,.22v.17a68,68,0,0,1-4,14.27,1.34,1.34,0,0,1-.07.39,1.43,1.43,0,0,1-.14.39c-.59,1.41-1.35,3.45-2.3,6.11,2.63-1.08,5.22-2.19,7.75-3.32A3.68,3.68,0,0,0,272.51,402.25Z" fill="#fff"/><path d="M314.62,452.93a1.49,1.49,0,0,0,.48.22,21.28,21.28,0,0,0,2.51.59,3.4,3.4,0,0,0,.46.09,1.93,1.93,0,0,1,0-.34c-1.09-.19-2.14-.43-3.16-.71C314.66,452.83,314.55,452.88,314.62,452.93Z" fill="#fff"/><polygon points="208.71 412.66 208.71 412.65 208.7 412.66 208.71 412.66" fill="#fff"/><path d="M214.24,390.61v-1.16h0l-.1-.11V388.1h0l-.11-.16v-.62h-.28v-.7a1.12,1.12,0,0,1-.09-.44v-.57l-.06-.16a3.92,3.92,0,0,0-.93-1.78l-.32-.3h0a14.07,14.07,0,0,1-.48-.34.79.79,0,0,1-.23-.14,1.31,1.31,0,0,1-.37-.24l-.14-.13H211l-1.23.62v-.68h-.14l-.08-.22h-1.31c-.3,0-.89.08-1.32.1s-.65,0-1,0h-.17a6.2,6.2,0,0,0-1.93,0h-.37a6.86,6.86,0,0,0-.9.09l-.28-1.39-.26.06h-.12c-.83.12-1.55.2-2.18.27l-.79.15-.31.05-4.89.66,4.25-2.51a3.91,3.91,0,0,1,.67-.27l.7-.24.26.13c.73-.18,1.58-.35,2.65-.55l-.12-.07a40.08,40.08,0,0,0-16.06,5.65l-.08.08-1.28,1.14-.21.19h3.16l-2.53,1.81-.68.5v1.06l-.38.3c-1,.8-2,1.59-3,2.41-.13.13-.26.26-.4.38a1.54,1.54,0,0,1,.25.26l.07.09.41-.17a7.16,7.16,0,0,1,.89-.3c.8-.3,1.62-.58,2.37-.8a5.46,5.46,0,0,1,2.16-.29,1.33,1.33,0,0,1,1.12.71,1.87,1.87,0,0,1-.28,1.81,13.61,13.61,0,0,1-1.91,2.49l-.09.13c-.19.26-.41.55-.63.87l-.72,1L186,396.9l-3.61,5.87a.92.92,0,0,1-.09.23l-.55,1-.14.29c-.05.11-.1.23-.16.34l-.34.6c-.13.37-.27.7-.4,1l-.16.25-.08.12c-.66,1.64-1.34,3.46-2,5.34s-1.28,3.83-2,6.44c-.33,1.14-.65,2.39-1,3.69v.14l-.06.28a3,3,0,0,1-.07.51l-.26,1a2.43,2.43,0,0,1-.08.47l-.09.41-.06.21a2.42,2.42,0,0,1-.07.47.52.52,0,0,1-.07.33l-.07.31a6,6,0,0,0-.21,1.18l-.06.3c0,.11-.05.21-.07.32v.16a2.2,2.2,0,0,0-.07.37v.36l-.19.93c-.11,1.06-.21,2.32-.3,3.77a2.05,2.05,0,0,1-.06.49,3.38,3.38,0,0,1,0,.45v.16a1.93,1.93,0,0,0,0,.34,2.1,2.1,0,0,1-.05.61v.47l-.05.48v1.15l.19,2.09v.52h0l.06.14h0a2.36,2.36,0,0,1,.1.38v.47a2,2,0,0,0,.1.38l.09.38a14.78,14.78,0,0,0,.77,3.41c.08.29.17.54.27.81h0a2.12,2.12,0,0,1,.11.21,4.43,4.43,0,0,1,.3.67,8.86,8.86,0,0,0,.79,1.23,2.73,2.73,0,0,0,.43.47h.69v.22h.74L178,449l.9-.14,1.23-.37a26.53,26.53,0,0,0,3.07-1.4,33.21,33.21,0,0,0,3.25-2.15,47.31,47.31,0,0,0,6.57-5.76,61,61,0,0,0,5.83-6.9c.88-1.3,1.67-2.52,2.4-3.72a16.19,16.19,0,0,0,.92-1.75l.16-.25c.06-.07.08-.1.08-.11.08-.18.19-.4.29-.58l.39-.82a1.24,1.24,0,0,1,.2-.49c.26-.53.48-1.09.68-1.62s.49-1.06.72-1.55.45-1,.67-1.45.32-.84.51-1.25l.56-1.17c.27-.65.62-1.43,1-2.32l.08-.18.15-.13a3.91,3.91,0,0,0,.37-.44v-.16a.33.33,0,0,0,0-.14V414a1.77,1.77,0,0,1,.26-.87l.19-.39.26-.2a.71.71,0,0,1,.14-.1l.21-.58a4.71,4.71,0,0,1,.34-.88,8.63,8.63,0,0,1,.28-.86c.12-.29.2-.54.28-.77v-.08a2.38,2.38,0,0,1,.11-.38l.14-.3v-.15l.13-.47c.06-.2.12-.38.18-.55.22-.63.42-1.22.6-1.79.73-2.31,1.34-4.56,1.84-6.68a1.23,1.23,0,0,1,.07-.42l.11-.23.15-.22.1-.13v-.24a2.54,2.54,0,0,1,0-.39v-.07a8.4,8.4,0,0,1,.19-1c0-.28.06-.54.08-.8l-.08-.27.16-.31.09-.88a3.21,3.21,0,0,0,0-.62,1.75,1.75,0,0,1,0-.56v-.21a5,5,0,0,0,0-.77,4.61,4.61,0,0,1,0-.91C214.24,390.83,214.24,390.72,214.24,390.61Z" fill="#fff"/><path d="M235.67,394.88c-.25.09-.48.17-.7.27h0v.16l.2-.11.83-.4.3-.16c.44-.22.9-.44,1.36-.64a3.22,3.22,0,0,0-.61.24Z" fill="#fff"/><path d="M199.4,379.68l.12-.25h0l-.12.24Z" fill="#fff"/><path d="M269.1,206.51H269l.14.31h.15Z" fill="#fff"/><path d="M190.5,312.51l-.34-.06.09.16a2.6,2.6,0,0,0,.73.82l.21-.18A2.56,2.56,0,0,1,190.5,312.51Z" fill="#fff"/><path d="M221.94,289.89l28.82-19.33,26-17.18,26.17-17.18,12.69-8c-11.43-5.2-27.31-2.2-27.31-2.2-20,5.3-37.08,19.42-37.08,19.42C232.81,260.22,224,283.85,221.94,289.89Z" fill="#fff"/><path d="M345.34,213a6.53,6.53,0,0,0-1.82-2.16L342,209.72C344.86,211.87,343.57,211.5,345.34,213Z" fill="#fff"/><path d="M129,163.31q6.9-4.34,19.12-15.15c2-1.79,3.92-3.63,5.87-5.6s3.73-4,5.55-6.13a78.83,78.83,0,0,0,5-6.38,64.7,64.7,0,0,0,4.29-6.55l.09-.18c1.35-2.36,2.56-4.69,3.59-7a2.06,2.06,0,0,0,.53-.57.32.32,0,0,0,.07-.19v-.19a.54.54,0,0,0,0-.18,1,1,0,0,1,.07-.29.93.93,0,0,0,.14-.14.17.17,0,0,0,0-.1s0,0,.09,0a.32.32,0,0,0,.18-.1,34.38,34.38,0,0,0,1.85-6.69,26.62,26.62,0,0,0,.1-5.5,21.67,21.67,0,0,0-1.08-5.15l-.14-.38v-.27c.06,0,.08,0,.08-.1v-.09h.11v-.09l.08-.1h-.17V96H174a7.94,7.94,0,0,0-1.25-.41,23.59,23.59,0,0,0-2.36-.36,2,2,0,0,0-.48-.06h-.27a.78.78,0,0,0-.37-.06h-.48a1.22,1.22,0,0,0-.27,0H168a2.1,2.1,0,0,0-.56-.07,24.44,24.44,0,0,0-2.95.34v.08h-.27a2.41,2.41,0,0,0-.65.12.22.22,0,0,1-.2-.09,113.08,113.08,0,0,0-12.11,2.09c-1.79.39-3.57.85-5.4,1.38a78,78,0,0,1-3.27,12,6.21,6.21,0,0,1-.21.85c-1,2.9-2.53,7.37-4.41,13.39s-3.7,12.22-5.46,18.63v.1a39.92,39.92,0,0,1-1.54,4.91,1.23,1.23,0,0,0-.53.4c-.06.07-.06.11,0,.14a.15.15,0,0,1,0,.13.39.39,0,0,1,.12.19.61.61,0,0,0,0,.19l-.14.13h-.29v.1c-.85,2.46-1.7,4.82-2.56,7.11a.19.19,0,0,0-.09.14s0,0-.08,0h-.29a10.94,10.94,0,0,1-.65,2.18c-.34.89-.63,1.81-.88,2.73a17.4,17.4,0,0,1-.76,2.09v.1l.1.08v.09l-.09.1h-.1s-.08,0-.08.1-.09,0-.09.1a.4.4,0,0,0-.07.24c0,.08,0,.14-.08.14a7.23,7.23,0,0,0-.43,1.51c1.29-.94,2.56-1.84,3.79-2.7A13.58,13.58,0,0,0,129,163.31Z" fill="#fff"/><path d="M197.43,325.61l-.11.13.14-.09Z" fill="#fff"/><path d="M268.66,206.09h.24V206h0l-.13.06h-.09Z" fill="#fff"/><path d="M268.76,206.09h.14l-.12,0h-.06Z" fill="#fff"/><path d="M318.08,452.88v-.24c-.54-.14-1.05-.27-1.56-.44-1-.29-1.75-.49-2.2-.58-.11.1.25.29,1.07.56A24.7,24.7,0,0,0,318.08,452.88Z" fill="#fff"/><path d="M197.57,325.86a3.47,3.47,0,0,0-.65.73l.18-.14-.1.13h0l.13-.1h0l.6-.39-.12-.26Z" fill="#fff"/><path d="M269,206.56h.12l-.18-.47-.12,0h-.07c.08.17.13.26.21.44Z" fill="#fff"/><path d="M269.09,206.9h0c0,.1.07.15.11.24h0l.25.53h.09l-.3-.81h0Z" fill="#fff"/><path d="M313.18,258l-1.19.77a1.48,1.48,0,0,0,.57-.26c-.55.51,0,.4-1,.77-.18.15-.09.19-.05.26-.59.25-1,.43-1.13.78l-.18.09h-.07c-1.38.69-2.81,1.28-4.16,2h-.11l.65-.57h0L304.74,263l-3.32,2.2a.55.55,0,0,0,.07.28c-3.59,2.43-7.26,6.38-11.29,8.35-1.37-.22-1.45.89-3.26,2.2-4.11,3.09-8.65,7.18-13.23,10.22l-.1-.34-4.85,2.92c-2.64-.42-5.34,4.21-7.9,5.8-5.13,3.64-13.41,7.65-18.09,12.8-1.64,1.21-3.74,2.93-5.84,4.45a33.28,33.28,0,0,1-3.09,2s9,12.47,27.42,4.66c0,0,11.09-3.25,28.16-16.95,0,0,17.33-11.92,27.28-24.37,0,0,11.75-14.94,11.38-29-.86.46-2,1.13-3.61,2.11l-.22.14-11.39,7.27C312.88,258,313,258,313.18,258Z" fill="#fff"/><path d="M268.78,206.35l-.09-.21h0Z" fill="#fff"/><path d="M65,357l.08.05.33.05A1.89,1.89,0,0,1,65,357Z" fill="#fff"/><polygon points="491.14 186.45 490.99 187.88 491.15 187.26 491.15 186.34 491.06 186.32 491.14 186.45" fill="#fff"/><path d="M217.06,224.92v.13h.11l-1.1-1.47C216.07,224.08,216.43,224.44,217.06,224.92Z" fill="#fff"/><path d="M290.36,115.19a.84.84,0,0,0,.35-.21.73.73,0,0,0,.17-.18.22.22,0,0,1,.14-.19,1.87,1.87,0,0,1,.39-.22.63.63,0,0,1,.27-.1h.19a.28.28,0,0,0,.15.08s.07,0,.14-.1c3.39-1.71,6.6-3.51,9.6-5.39,2.58-1.75,5.11-3.57,7.55-5.5A83.35,83.35,0,0,0,316,97.47a40.5,40.5,0,0,0,3.73-3.24c.49-.64.95-1.25,1.32-1.83.07,0,.1,0,.09-.1a3.84,3.84,0,0,1,.59-.68,4.83,4.83,0,0,1,.43-.58l.08-.1a2.06,2.06,0,0,0,.41-.68,2.11,2.11,0,0,0,.22-.74l.07-.19h.1V89c0-.07-.05-.11-.15-.09a.32.32,0,0,0-.22.1v.09a.38.38,0,0,0-.29-.07,5.76,5.76,0,0,0-1.24-.22h-.56l-.29-.07a8.34,8.34,0,0,1-1,0h-1.46l-.47-.07h-3.74c-1.29.06-2.59.17-3.88.28-2.58.31-5.26.72-8,1.23l-4.12.76a12.76,12.76,0,0,1-1.48.36,2.25,2.25,0,0,1-.63.11l-1.83.46-1.92.56-1,.24-1,.32-2.09.66a.89.89,0,0,0-.35.11h-.19v.46a83.18,83.18,0,0,1-4.22,17.24,1.57,1.57,0,0,1-.05.48c-.05.11-.1.27-.16.45-.67,1.72-1.51,4.18-2.54,7.38q4.68-2.08,9.16-4.25A3.43,3.43,0,0,0,290.36,115.19Z" fill="#fff"/><path d="M381.85,322.63l1.32,1.17C383.17,323,382.41,322.85,381.85,322.63Z" fill="#fff"/><path d="M484.08,208.92v.81l.48-1.65A1,1,0,0,0,484.08,208.92Z" fill="#fff"/><path d="M318.07,454c-1-.18-2.23-.45-3.6-.79.64.25,1.12.44,1.42.59a12.07,12.07,0,0,0,1.34.22c-.42,0-.83-.1-1.25-.13a1.35,1.35,0,0,1,.37.3.28.28,0,0,1,.09.27,1.48,1.48,0,0,1-.1.27.42.42,0,0,0,0,.31.67.67,0,0,0,.25.3,3.48,3.48,0,0,0,.68.38l.82.4C318.05,455.37,318.05,454.66,318.07,454Z" fill="#fff"/><path d="M381.75,326.53l1.43.52a3,3,0,0,0-1.43-.64Z" fill="#fff"/><path d="M359.31,172.05h.56a20.52,20.52,0,0,0,2.5-.22c.61-.1,1.19-.2,1.71-.32v-.16A21.39,21.39,0,0,1,359.31,172.05Z" fill="#fff"/><path d="M434,417a16.32,16.32,0,0,1-3-2.75,14.87,14.87,0,0,1-1.42-1.75c-.39-.54-.77-1.1-1.14-1.71l-.29-.31c-1-1.86-2.81-4.7-5.31-8.46-1.17-1.94-2.36-3.86-3.53-5.74A15.64,15.64,0,0,1,418,394a.25.25,0,0,0,.22-.25v-.1a.38.38,0,0,1-.15,0,.26.26,0,0,1-.2-.1c0-.07,0-.1.1-.09l.12-.08c-.38-.8-.7-1.56-1-2.28-.81-1.15-1.59-2.35-2.32-3.63a3.51,3.51,0,0,1-.14-1.25,2.08,2.08,0,0,1-.37-.51c-.07-.12-.13-.26-.19-.39A.52.52,0,0,0,414,385a.36.36,0,0,0-.31-.17c-.23-.41-.45-.81-.64-1.2a9.59,9.59,0,0,0-1.58-2.62h-.1v-.09a.45.45,0,0,1-.21-.12l.11-.08c-.06-.14-.12-.27-.17-.41a21,21,0,0,1-.73,4l-.26.78a6.86,6.86,0,0,1-.35.78c-.14.42-.29.83-.48,1.26a3,3,0,0,1-.14.39c-.23.47-.47.93-.69,1.4l-.15.16c-.14.27-.29.52-.43.79s-.25.46-.35.63v.07a44,44,0,0,1-3,4.17,71.35,71.35,0,0,1-7.21,7.44,99.14,99.14,0,0,1-8.61,6.51,134.31,134.31,0,0,1-20,11.13q-4.79,2.19-9.74,4.06a8.48,8.48,0,0,0,1,.37l.23.12a.14.14,0,0,0,.16-.05h.12a.14.14,0,0,1,.11.08l.21.1.12.12a.11.11,0,0,0,.05.12H361a.2.2,0,0,1,.15.06.3.3,0,0,0,.24.09,2,2,0,0,0,.52.22,1.08,1.08,0,0,1,.44.22c2.18.9,4.31,1.75,6.44,2.53,1.84.67,3.69,1.41,5.54,2.24a.28.28,0,0,1,.17.07c.16.1.31.18.44.27a2.36,2.36,0,0,0,.45.22l.78.34a2.07,2.07,0,0,0,.47.18,1.77,1.77,0,0,1,.29.07l.27.12a3.33,3.33,0,0,1,.54.07c0,.05.07.08.17.12a1.26,1.26,0,0,1,.33.1l.42.15a1,1,0,0,0,.29.07l.07.08L379,432v.09c.22.1.56.24,1,.4l1.58.56c.75.24,1.41.5,2,.73s1.2.51,1.83.75a33.32,33.32,0,0,0,3.73,1.49c-2.15-.57-3.63-.66-4.44-.23a21.82,21.82,0,0,0,3.81,1.57,20.23,20.23,0,0,1,3.18,1.26l1.46.44a8.06,8.06,0,0,1-1.07-.29l-.39-.15c-1.38-.44-3.09-1-5.14-1.7s-3.7-1.25-4.91-1.69a6.58,6.58,0,0,0-2.44-.51c-.51.07-.59.37-.26.93a39.91,39.91,0,0,0,4.6,1.87,24,24,0,0,1,3.18,1.12s0,.06.08.06a2.4,2.4,0,0,1,.34.55q5.85,2.13,11.71,4.07a114.76,114.76,0,0,0,11.67,3.14c.73.13,1.6.36,2.6.64.42.11.86.22,1.34.38a29.47,29.47,0,0,0,4.83.95c.67-1.51,1.4-3,2.19-4.55.07-.12.16-.24.22-.36a1,1,0,0,1,.14-.47q1.94-3.51,5.39-10.67t7.32-15.22h-.1Z" fill="#fff"/><path d="M415.22,449.72H415c.47.11.88.18,1.24.23,1.07.24,1.8.39,2.15.49l.21-.49C417.41,449.89,416.29,449.84,415.22,449.72Z" fill="#fff"/><path d="M362.79,400.62a1.17,1.17,0,0,0,.31-.17l.15-.15a.15.15,0,0,1,.1-.16.91.91,0,0,1,.34-.17.62.62,0,0,1,.24-.08h.15c.05.05.09.08.12.08a.2.2,0,0,0,.1-.08c2.89-1.34,5.62-2.77,8.18-4.26,2.21-1.39,4.34-2.85,6.45-4.38a64.37,64.37,0,0,0,5.73-4.77,37.81,37.81,0,0,0,3.19-2.61c.44-.53.84-1,1.17-1.49.06,0,.07,0,.07-.09a3.52,3.52,0,0,1,.53-.56,2.24,2.24,0,0,1,.35-.46l.07-.08a1.58,1.58,0,0,0,.36-.56,1.47,1.47,0,0,0,.2-.61l.07-.17h.09v-.31c0-.05-.05-.06-.12-.06s-.15,0-.19.06v.09a.25.25,0,0,0-.23-.07,6.86,6.86,0,0,0-1-.22h-.48l-.24-.07a4.76,4.76,0,0,1-.84-.07l-.87-.05h-.39l-.39-.06-3.1-.11c-1.11,0-2.19.07-3.26.14q-3.25.28-6.72.81l-3.48.53c-.41.1-.81.19-1.22.25a1.65,1.65,0,0,1-.54.09l-1.55.34-1.59.41-.85.17-.85.25-1.77.49a.75.75,0,0,0-.3.09h-.15v.39a68.1,68.1,0,0,1-4,14.28,1.32,1.32,0,0,1-.06.39,1.7,1.7,0,0,1-.14.39c-.59,1.41-1.36,3.45-2.31,6.1,2.63-1.07,5.23-2.19,7.76-3.31A4.71,4.71,0,0,0,362.79,400.62Z" fill="#fff"/><path d="M319.46,455c-.35.4-.69.81-1,1.24l.56.26A13.32,13.32,0,0,1,319.46,455Z" fill="#fff"/><path d="M547.05,195.34l13.5-14.07-21.38-8.92V149.78l-21.87,5.9c1.11-2,2.18-3.94,3.14-6l.47-1c3.52-6.92,7-13.5,10.21-19.55,4.41-8.14,6.74-12.12,7.92-14l.25-.4.23-.41c.2-.35.4-.7.61-1.09a121.84,121.84,0,0,0,11.42-24.89l.61-1.89.37-1.94c.54-2.88,1-5.82,1.37-8.75l.11-.86.06-.86a21.84,21.84,0,0,1-.62,3.94l-1.27-.89a37.46,37.46,0,0,0,1.19-5,36.09,36.09,0,0,0,.27-14.27l3.46-5.54-8.39-6.48a32.66,32.66,0,0,0-9.85-9.49,31.84,31.84,0,0,0-26.47-14.14,34.25,34.25,0,0,0-3.79.21l-2.4-3.13c-1.33.29-2.65.64-3.95,1.06l-.06-.07c-1.24.38-2.48.83-3.74,1.34l-3.16,1.05-.63.61-1.59.72-2.85,2.18a3.28,3.28,0,0,1-.38.27,42.24,42.24,0,0,0-8.69,7.07c-.56-.38-1.13-.75-1.72-1.13a41.18,41.18,0,0,0-3.73-2.22l-3.45-1.8-3.34-10.06-3.2,1.08L460.92,7.67l-.35.28-1.48-5.51-1,.78L457.21,0,425.74,27.69h-5.58l-1.05,1.4H397v.1h-.09v4.57l-.16-.18c-1.22.35-2.42.77-3.6,1.24l-8.91,3.55-.49.72-5.28,1.6-.49.15-6.2,1.94-.07-.36H359l-7.08-7.11-5.69,1.41h0a49.94,49.94,0,0,0-5.73-1.9h-.13c-.55-.16-1.11-.31-1.67-.45l-2.17-.58H336l-.55-.11c-.62-.12-1.28-.25-2.06-.37L333,33.2l-1-.2-.93-.1h-.34c-.61-.07-1.24-.13-1.88-.18l-1.91-.82-6.46.43h-.86c-3.39,0-6.7.12-9.86.37h-.65c-3.22.32-6.35.76-9.32,1.3-2.71.43-5.46,1-8.19,1.57l-.46.1H291V18.58L269.27,31.07l-24.23,4h-4l-.93.47h-6.2l-1.09,1.06a13.15,13.15,0,0,0-1.66.17l-.62.06h-23l-2,6-1.24.22-1.67.94c-1.34.43-2.64.92-3.93,1.46l-3.14-2H194l-4.35-1.18-.7-.36-1-.23-2.51-.93h-1.75c-2.39-.49-4.63-.85-6.82-1.1h-.45c-3.78-.37-7-.55-9.85-.55h-1.91a34.82,34.82,0,0,0-3.77.27c-2.34.15-4.73.4-7.12.75-1.41.18-2.81.38-4.17.6H113.31l-4,12c-.92.87-1.78,1.76-2.58,2.66-3.5,2-7,4.06-10.59,6.23l.41,1.11a44.7,44.7,0,0,0-5,2.84,43.33,43.33,0,0,0-10.45,8,34.32,34.32,0,0,0-4.33,5.78l-3.4,1.37.47,5a31.68,31.68,0,0,0-1.58,12,31.44,31.44,0,0,0,6.88,31.84c-.79,2.73-1.58,5.43-2.35,8.09-1.71,5.82-2.63,8.7-3.11,10.08l-1,2.84-.07.51a95.19,95.19,0,0,0-3.49,16.35c-.57.45-1.11.9-1.63,1.37l-.41.37a32.12,32.12,0,0,0-10.24,20.52,31.29,31.29,0,0,0,13.67,39.41l-.17,1.27L39.93,246.6l18.89,13.86c-2.46,5.21-4.54,10.07-6.35,14.79l-.17.46c-.39,1.05-1.09,2.54-1.84,4.13a88.21,88.21,0,0,0-4.56,11.07l-.36.9c-1.27,3.24-2.48,6.31-3.45,9.6a13.72,13.72,0,0,1-.81,2.13,42.71,42.71,0,0,0-2.06,5,42.51,42.51,0,0,0-2.15,5.18L35,317.25c-1.67,2.81-1.67,2.81-2.69,4.38-.67,1-1.64,2.52-3.29,5.09-3.73,5.48-8.45,13.91-8.38,25.17v3A38.71,38.71,0,0,0,22.33,366L10.17,392h31c.08.6.16,1.19.26,1.78v3l.11.23v.22L44,402.74c.13.33.27.65.41,1l.25.56L39.19,408H36.31l-4.85,3.88-1.51.75-2.32,2.31-.19.15-1.32,1-.73.64H20.51l-7.11,11.6-7.84,7.89.81,2.46L4.1,442.41l-.25,1.14-.27.65a46.61,46.61,0,0,0-3.5,15.34,37.48,37.48,0,0,0,0,4.74c0,.62.06,1.27.11,1.94l.11,1.52.26,1.5a43.42,43.42,0,0,0,2.35,8.45,41.67,41.67,0,0,0,4.78,9.2l.66,1,.76.94,1.31,1.72,1.15,1.21c.47.5,1.32,1.4,2.47,2.46.57.53,1.14,1,1.72,1.51l1.18,1,.87.86,3.08,1.89Q23.38,501,26,502.2a40,40,0,0,0,3.69,1.56A30.56,30.56,0,0,0,32.91,505a31.21,31.21,0,0,0,6.34,1.39l2.53.64H43l.93.21h1.83l1.11.26H52a23.76,23.76,0,0,0,2.38-.08c.8-.08,1.63-.06,2.41-.11h.71c.76,0,1.54-.09,2.31-.16h3.32l1-.28H68.5l2.25-1.11c.34-.05.69-.11,1-.18.5-.08,1-.17,1.48-.27l1.26-.22.29-.06.94-.2.41-.07h1.21l2.51-.55,1.37-.23.66-.22c3.81-.85,7.69-1.85,11.55-3,3-.83,6.07-1.76,9.16-2.78l.86.12,7.23-2.61,2.69-1c.4-.13.8-.28,1.19-.42l.62-.23,3.81-1.59,1.15-.47,1.23-.31,3.22-1.61,3.28-1.52.52-.26c1.3-.56,2.57-1.18,3.79-1.84l.2-.1a10.35,10.35,0,0,0,1-.49l1.08-.53v.42L146,493.82l7.57,6.9h4.31c.64.27,1.29.52,2,.77a52.12,52.12,0,0,0,7.81,2.48l1.78.48,3.44.49,1.93.31h.81l.88.08,1.75.15H180a57.9,57.9,0,0,0,10.82-1.26h2.78L213,491.66s13.62,14.1,13.09,12.52h5.61l7.63-2.26,10,2.14,3.48-4.51,1.84-5,11-13.89,6,2.6,2.22.83c4.59,1.66,8.82,3.06,12.84,4.27l20,11.73,16.1-1.5c.73,0,19.6,10.44,19.6,10.44l17.44-27.6c.16-.31.3-.62.45-.93,1.62.62,3.29,1.24,5,1.88l.17.06c6.86,2.49,13,4.43,18.68,5.92l.66.17c.09,0,19.1,13.22,19.1,13.22A31.41,31.41,0,0,0,427.28,512h.21v2h.5v.24h2.17c-.75.06-1.51.09-2.27.09h11.2l.1-.09h5.64l5.57-8.37.37-.24L453,503l.1-.09h2.6l4.64-6.26h16.74V476.54l4.16-3.08v-7.28l5.58-9.51a79.29,79.29,0,0,0,4.47-8.88l.17-.42c3.14-6.71,6-12.66,8.78-18.17,3.75-7.49,5.67-11,6.62-12.68l.48-.82.51-1a113.26,113.26,0,0,0,9.88-23.46l.54-1.88.31-1.93c.43-2.75.77-5.54,1-8.29v-.43a24.06,24.06,0,0,1-.58,3.58l-1.21-.8A44.47,44.47,0,0,0,519,363.13l3.4-5.91-8.53-6.42a32,32,0,0,0-9.94-9.41,31.57,31.57,0,0,0-25.46-12.69,32.65,32.65,0,0,0-5.13.4l-2.23-2.74a33.52,33.52,0,0,0-4.17,1.29h-.06l-.07-.08c-1.12.42-2.23.87-3.32,1.36l-3.12,1.17-.68.71-1.11.57-2.36,1.85c-.19.15-.42.33-.7.53a43.14,43.14,0,0,0-6.38,5.22,37.33,37.33,0,0,0-4-2.13l-.8-.36-.07-.19a32.55,32.55,0,0,0,3.06-11.69c.14-.52.28-1.05.4-1.58a282,282,0,0,0,13.17-31.46l.17-.51c.64-1.95,1.56-4.18,2.64-6.76a141.23,141.23,0,0,0,6.2-17.29,66.15,66.15,0,0,1,2.25-6.38c.32-.79.72-1.76,1.13-2.9L484.09,274l4.22-7.91,7,8,10.82-31.16,2.53.13a32.67,32.67,0,0,0,5.18,1l1.76.19h1.74a32,32,0,0,0,5.69-.52l5.12.25,5.42,3.77.38-3.48,1.54.08-1.2-3.2.21-2a34.93,34.93,0,0,0,7.54-6.6l13.51-15.24-6.68-17.66C548.29,198.21,547.68,196.74,547.05,195.34ZM203.87,129.71c.38-1.49.82-3,1.31-4.34a.48.48,0,0,0,.44-.29v-.29c0-.07-.1,0-.1-.08a.25.25,0,0,1,.09-.19.12.12,0,0,1,0-.14h0a.27.27,0,0,0,.17-.1c.44-1.39.92-2.77,1.43-4.16.59-2.46,1.2-4.87,1.8-7.26.37-.7.76-1.36,1.13-2a8.45,8.45,0,0,1,.19-1.12,2,2,0,0,1,.24-.58,3.16,3.16,0,0,1,.13-.53,1.47,1.47,0,0,0,.05-.59,14.71,14.71,0,0,1,.56-2.17,37.09,37.09,0,0,0,1.33-5.28h-.11l.09-.19a.77.77,0,0,1,0-.37l.09-.1a2.81,2.81,0,0,0,.22-.75c0-.13.1-.29.15-.47-1.9.34-3.84.68-5.79,1a1.6,1.6,0,0,1-.68-.18l-1.05-.48a5.54,5.54,0,0,0-1.27-.68,7,7,0,0,1-1.1-1,1.69,1.69,0,0,1,.44-.12.69.69,0,0,1,.37-.1,2.41,2.41,0,0,1-1,0,1.45,1.45,0,0,1-.33-.45.26.26,0,0,0,.19-.1c.24-.07.48-.12.75-.18a2,2,0,0,1-.49,0h-.65a2.89,2.89,0,0,1,1.48-.25,2.78,2.78,0,0,0,.91,0c-1.15-.44-1.64-1-1.47-1.6a3.52,3.52,0,0,1,1.74-1.86l-.4.17a1.41,1.41,0,0,1-.41,0,.58.58,0,0,1-.29-.12c0-.32,0-.51.14-.57a.9.9,0,0,1,.51-.07,4.09,4.09,0,0,1,.61.1,1,1,0,0,0,.51.07.41.41,0,0,0,.32-.1.51.51,0,0,0-.46-.39,2.28,2.28,0,0,0-.78.08,4.31,4.31,0,0,1-.88,0,.76.76,0,0,1-.65-.37,3.41,3.41,0,0,0,.82-.32,3.41,3.41,0,0,1,.57-.36,1.12,1.12,0,0,1,.7-.08c0-.38-.15-.55-.37-.55a1.53,1.53,0,0,0-.68.23,4.44,4.44,0,0,1-.6.16c-.15.06-.27,0-.34-.2.43-.08.78-.17,1.09-.25s.39-.14.65-.21a1.32,1.32,0,0,1-.72-.57,5.41,5.41,0,0,1-.34-.87,1.83,1.83,0,0,0-.2-.69,1.12,1.12,0,0,0-.46-.48,7.93,7.93,0,0,0-.71-.71,5,5,0,0,1-1.36-1.72c-.24-.54,0-1.21.66-2a1.59,1.59,0,0,1,.89-.7c.42-.13.89-.29,1.45-.44a11.84,11.84,0,0,0-1.76-.93,4.14,4.14,0,0,0,.34-.48c.66-.9,1.34-1.78,2-2.61a17.6,17.6,0,0,1,7.74-3.44l.36-.21a72.8,72.8,0,0,0,7.1-1.75l1.94-.45c.9-.29,1.78-.56,2.63-.78a1.43,1.43,0,0,1,.34-.31c.52-.39,1.07-.76,1.59-1.1a2.56,2.56,0,0,1-.22.66.42.42,0,0,1-.07.29h.09a4.82,4.82,0,0,1,.56-1l.64-.22a3.57,3.57,0,0,1-.23.57,1,1,0,0,1-.07.38h.19c.15-.37.28-.73.39-1H228c-.1.31-.19.63-.29.94a.32.32,0,0,0,.27-.11l1.73-.45a8.16,8.16,0,0,1,2.57-.6,1.51,1.51,0,0,0,.39.27l.08-.1A.21.21,0,0,1,233,69H233a.08.08,0,0,1,.13,0s0,.06,0,.13v.14s0,0,.08,0c1.29-.24,2.58-.42,3.87-.56a.35.35,0,0,1,.12.19c0,.07,0,.08.1.08a7.9,7.9,0,0,1,1.19-.15,9.27,9.27,0,0,0,1.38-.34,3.25,3.25,0,0,1,1.12,0l.08-.1V68.2h.11v.1l.1.08h.27a13,13,0,0,0,1.37-.34,4.36,4.36,0,0,1,1.19-.26h.1l.16.14h.23a.21.21,0,0,0,.17-.1.23.23,0,0,1,.19-.1c0-.07,0-.09.08-.1a.08.08,0,0,0,.09-.07v0l.1.09v.18h.24a.76.76,0,0,0,.32-.11l.44-.22a2,2,0,0,1,.48.09,1.94,1.94,0,0,0,.83,0c-.41.27-.58.83-.51,1.69a.45.45,0,0,0,.44.12l.41-.07a1.46,1.46,0,0,1,.46-.1.94.94,0,0,1,.37.07.64.64,0,0,1,.24-.1l-.14.1h-.1a7.25,7.25,0,0,0-1.26.44l-.81.31c-.49.22-.49.78,0,1.68a.69.69,0,0,0,.52.12,1.59,1.59,0,0,0,.41-.16,1.56,1.56,0,0,1,.73-.22.09.09,0,0,0,.09.09h0a1.12,1.12,0,0,1,.12.35c1.72-.27,3.43-.51,5.16-.71a1.61,1.61,0,0,1,.61.15l.83.43c.32.17.68.34,1.07.51s.54.51.82.79a2.41,2.41,0,0,1-.38,0,1.12,1.12,0,0,0-.35.12,1.21,1.21,0,0,1,.84,0,.73.73,0,0,1,.31.36h-.19a3.87,3.87,0,0,0-.83.12h.56a.77.77,0,0,0,.56,0v.1a2.69,2.69,0,0,1-1.19.16,6,6,0,0,0-.84-.07c1,.39,1.34.83,1.13,1.31A2.81,2.81,0,0,1,255,76.43h.33a2.29,2.29,0,0,1,.37,0c.1,0,.14,0,.15.09.09.3,0,.45-.23.47a4,4,0,0,1-.85,0l-.39-.12a.34.34,0,0,0-.28,0,.51.51,0,0,0,.41.31,2.36,2.36,0,0,0,.65,0h.69a.54.54,0,0,1,.44.2c-.17.09-.39.19-.62.33a1.8,1.8,0,0,1-1.09.23c0,.31.1.46.27.45a2.06,2.06,0,0,0,.6-.12,2.81,2.81,0,0,1,.49-.16c.15,0,.23,0,.23.12-.28.09-.55.14-.76.19a3.17,3.17,0,0,0-.69.17,1.28,1.28,0,0,1,.4.25,1.24,1.24,0,0,1,.34.82,1.75,1.75,0,0,0,.14.51,1.38,1.38,0,0,0,.32.4l.59.53a3.85,3.85,0,0,1,1,1.36c.17.42-.06.9-.71,1.42a1.17,1.17,0,0,1-.74.46l-1.24.29a7.44,7.44,0,0,0,1.37.78c-.12.12-.24.25-.34.37-.58.66-1.17,1.28-1.8,1.87a11.52,11.52,0,0,1-3,1.49,31.63,31.63,0,0,1-3.41,1h-.19a.22.22,0,0,1-.18.1c-1.29.19-3.21.6-5.77,1.21-.73.17-1.46.35-2.19.57a73.8,73.8,0,0,1-3.73,16.46c-.09.32-.19.63-.29,1q-1.59,4.45-4.41,14a18.21,18.21,0,0,0-.65,2.18c-.25.81-.49,1.66-.73,2.54a6.55,6.55,0,0,1-.29.85c-.39,1.39-.76,2.75-1.15,4.07q-1.35,5.08-2.7,10v.08a50.81,50.81,0,0,1-1.53,5.11,1.21,1.21,0,0,0-.53.39c-.06.07-.05.15,0,.27a.26.26,0,0,1,.1.19.23.23,0,0,1-.06.18c-.06.07,0,.19,0,.19H223s-.05,0-.05.1c-.83,2.58-1.7,5.07-2.63,7.46a.15.15,0,0,1,0,.16.11.11,0,0,1-.09.05v-.1h-.1a.09.09,0,0,0-.09.09c-.18.69-.42,1.49-.73,2.37s-.68,1.89-1,2.84c-.19.69-.41,1.39-.67,2.07a.11.11,0,0,0,0,.15l0,0v.19a.26.26,0,0,1-.19.1h-.08a.31.31,0,0,0-.09.18,1,1,0,0,1,0,.24,1.34,1.34,0,0,1-.12.24,17.13,17.13,0,0,0-.73,2.44h.08a3.72,3.72,0,0,1,1.1-.23h.11v-.11h.1v.09l.1.1h.1l.17-.1a3.3,3.3,0,0,0,1.38-.34,4,4,0,0,1,1.19-.24h.08a.19.19,0,0,0,.15.08h.43l.08-.11.09-.08h.08v-.08h.1v.19a.17.17,0,0,0,.23,0,1.77,1.77,0,0,0,.31-.15,1.46,1.46,0,0,1,.46-.1h.46a1.94,1.94,0,0,0,.83,0c-.41.27-.55.83-.41,1.7a.43.43,0,0,0,.42.11,2.09,2.09,0,0,0,.41-.17,1.76,1.76,0,0,0,.46-.06.59.59,0,0,1,.37,0,1.7,1.7,0,0,1,.32-.1l-.22.19-.1-.09c-.35.14-.78.32-1.25.53a8.39,8.39,0,0,1-.82.32c-.47.27-.49.83,0,1.68a.79.79,0,0,0,.56.1,1.25,1.25,0,0,0,.46-.15,1.36,1.36,0,0,1,.73-.22V171c.06.12.15.24.22.36,1.71-.32,3.46-.6,5.24-.82a.78.78,0,0,1,.56.07c.27.12.56.26.88.43l1,.51a4.21,4.21,0,0,1,.81.71.63.63,0,0,0-.27.1h-.37a8.08,8.08,0,0,1,.85,0,1.43,1.43,0,0,0,.3.35l-1,.24a.89.89,0,0,1,.56,0h.54a2.79,2.79,0,0,1-1.28.15h-.75c.9.34,1.27.74,1.08,1.25a2.66,2.66,0,0,1-1.51,1.38.72.72,0,0,1,.38-.1h.32c.08,0,.14,0,.14.08.1.31,0,.46-.24.48a4.69,4.69,0,0,1-.75,0,1.27,1.27,0,0,0-.47-.09H231a.43.43,0,0,0,.4.3,2.43,2.43,0,0,0,.66,0h.69a.61.61,0,0,1,.53.25,3.5,3.5,0,0,0-.71.32,2,2,0,0,1-1,.33c0,.25,0,.37.23.35a1.63,1.63,0,0,0,.54-.12l.51-.17c.15,0,.22,0,.24.14a.36.36,0,0,1-.28.1,2.54,2.54,0,0,0-.54.09,2.88,2.88,0,0,0-.64.17.61.61,0,0,1,.39.25,1.35,1.35,0,0,0,.27-.2,1.63,1.63,0,0,0-.17.2,4.18,4.18,0,0,1,.34.82,1.48,1.48,0,0,0,.13.5,1.45,1.45,0,0,0,.33.41,2.52,2.52,0,0,1,.5.53,3,3,0,0,1,1,1.25c.17.43-.07.94-.71,1.53a1.12,1.12,0,0,1-.7.44l-1.19.39a14.37,14.37,0,0,0,1.36.68,4.32,4.32,0,0,1-.34.39c-.56.65-1.14,1.26-1.7,1.85a9.79,9.79,0,0,1-3,1.63,11.53,11.53,0,0,1-1.63.54l-1.73.46a1.12,1.12,0,0,1-.35.12c-1.23.24-3.11.69-5.67,1.39l-3.84.93c-1.32.42-2.61.87-3.89,1.29h-.1a6.1,6.1,0,0,1-2.1.47.66.66,0,0,0-.29-.17l-.09.09v.15l-.1,0-.1-.1a.27.27,0,0,0-.1-.17c-.67.15-1.38.27-2.11.37-1.08.49-2.19,1-3.34,1.38a9.16,9.16,0,0,1-1.14-.22,2.43,2.43,0,0,1-.52.3h-.29a1.13,1.13,0,0,0-.32.05.4.4,0,0,0-.21.25,5.86,5.86,0,0,0-1,.33,6.42,6.42,0,0,0-2.42,1h-.11a.27.27,0,0,1-.17.1,122.75,122.75,0,0,1-12.79,2A1.52,1.52,0,0,1,183,199a6.65,6.65,0,0,1-1-.66,11.89,11.89,0,0,1-1.27-.68,4.42,4.42,0,0,1-1-1.07H180a1.38,1.38,0,0,0,.56-.12,2.11,2.11,0,0,1-1,0c-.14-.18-.29-.35-.43-.54h.38a3.33,3.33,0,0,0,.74-.18,2.71,2.71,0,0,1-.57,0H179a2.35,2.35,0,0,1,1.48-.15l1,0c-1.16-.51-1.65-1.07-1.45-1.7a3.45,3.45,0,0,1,1.9-1.76.7.7,0,0,1-.4.1h-.43a.32.32,0,0,1-.29-.18c0-.36.09-.56.38-.58a3.37,3.37,0,0,1,1,.15,2.73,2.73,0,0,0,.48.1.22.22,0,0,0,.27,0,.45.45,0,0,0-.36-.44,3.06,3.06,0,0,0-.8-.07,1.87,1.87,0,0,1-.88.06.88.88,0,0,1-.64-.45,2.59,2.59,0,0,0,.81-.32,3.45,3.45,0,0,0,.63-.25.89.89,0,0,1,.64-.09c0-.37-.06-.54-.28-.54a4.12,4.12,0,0,0-.78.14,1.13,1.13,0,0,1-.53.22.28.28,0,0,1-.31-.25v0a2.39,2.39,0,0,0,.65-.11,8.1,8.1,0,0,0,1.1-.16,1.41,1.41,0,0,1-.66-.66,7.08,7.08,0,0,1-.31-.88,3.93,3.93,0,0,0-.15-.68,1.46,1.46,0,0,0-.42-.59,5.87,5.87,0,0,0-.71-.7,5.79,5.79,0,0,1-1.23-1.82c-.2-.54.07-1.17.82-1.9a1.11,1.11,0,0,1,.83-.67,7.53,7.53,0,0,1,1.49-.36,14.32,14.32,0,0,0-1.66-1,1.52,1.52,0,0,1,.42-.49c.67-.9,1.31-1.69,1.94-2.42a18.1,18.1,0,0,1,7.57-3.16h.08a.31.31,0,0,0,.27-.1c.56-.09,1.26-.22,2.12-.39a.32.32,0,0,1,.07-.19v-.27a66.71,66.71,0,0,1,3-14.1v-.1a2.32,2.32,0,0,1,.14-.66c.2-.56.45-1.26.76-2.07l.78-2.75c.65-2.07,1.31-4.4,2-7q2.31-8,4.58-16.51Zm10.92,69.12-.11.13-1.14-.56-.21.33.11-.38h.13a2.7,2.7,0,0,1,1.22.48Zm-4.65,1.5a1.85,1.85,0,0,1-1.45,1.74Zm-3.28,2.73-.25.13-.25-.25.14-.13Zm-121.49-1a34.87,34.87,0,0,0,4.38-1.16l-1.19.26a5.8,5.8,0,0,1-1.1.13,5.74,5.74,0,0,1-1.31,0q-.77-.16,0-.75a51.19,51.19,0,0,1,5.11-2.48c.78-.35,1.59-.73,2.42-1.15l-1.49.54L90.7,198c-.43.14-.65.16-.65,0s.37-.51,1-.75a19.26,19.26,0,0,1,2.23-.71,3.72,3.72,0,0,1,.64-.22c.21-.08.42-.16.63-.22l.63-.22a1.81,1.81,0,0,0,.56-.12,9.27,9.27,0,0,0,1.61-.63c0-.19-.31-.19-.88,0l-2.13.72a5.83,5.83,0,0,1-.72.32c-1,.36-2,.68-2.91,1a5.15,5.15,0,0,1-1.74.27,29.28,29.28,0,0,0,3.59-1.56c1.18-.55,2.39-1.05,3.62-1.48.1-.25.12-.41,0-.42a1.29,1.29,0,0,0-.46.06c-.54.21-1.24.5-2.07.85h-.1c-.53.27-1,.51-1.56.73a10.55,10.55,0,0,1-1.33.48c-.35.12-.51.1-.45,0a13.45,13.45,0,0,1,1.54-.54c.29-.14.59-.27.88-.43a2.71,2.71,0,0,1,.54-.2c.43-.15.89-.32,1.36-.53a1.81,1.81,0,0,0,.44-.22,8.63,8.63,0,0,0,1.17-.51,8.07,8.07,0,0,1-1.37.26l-1.07.61c.31-.2.63-.41,1-.61a1,1,0,0,1-.62-.26.53.53,0,0,1-.17-.35.66.66,0,0,0-.12-.33.84.84,0,0,0-.36-.22,1.71,1.71,0,0,0-.78,0,11.06,11.06,0,0,0-1.41,0l-1.78-.1a3.38,3.38,0,0,1-1.22-.22c-.39-.17-.36-.46.1-.88a21.55,21.55,0,0,1,3.28-2.07,35.75,35.75,0,0,1,5-2.67c1-.42,1.94-.86,3-1.36-1.34.33-2.83.67-4.47,1.06h-.28c2.12-1.4,4.19-2.86,6.25-4.39a8.76,8.76,0,0,1-.15-1.77,4,4,0,0,1,.13-1.81c.17-.78.41-1.65.71-2.6-.51.6-1,1.24-1.61,1.94v-.09c-.15-1.91-.25-3.76-.27-5.56a63,63,0,0,1,2.94-13.64,3.23,3.23,0,0,0,.22-.75q1.27-3.69,3.51-11.35t4.55-15.75v-.1a40.25,40.25,0,0,1,1.33-4.16c.13,0,.23-.1.35-.29s.09-.11.09-.15,0,0-.11,0,0-.12,0-.14a1,1,0,0,0,0-.24.26.26,0,0,1,.19-.1h.17c.46-1.38.9-2.7,1.35-4,.55-2.32,1.17-4.65,1.84-7,.3-.63.66-1.27,1-1.92a8.45,8.45,0,0,0,.21-1,1.52,1.52,0,0,1,.22-.58,2.74,2.74,0,0,0,.23-.53.86.86,0,0,0,0-.59c.21-.63.39-1.32.58-2.09-1.87.71-3.7,1.43-5.51,2.14a35.09,35.09,0,0,1-6,1.31c-1.52.27-3.13.59-4.85,1-1.24.07-2.37.09-3.44.09l2-.85,1.45-.63a35.13,35.13,0,0,1-4,1.41,6.82,6.82,0,0,1-1.14-.14l3.65-1.54c-.51.2-1.07.41-1.66.61-1,.29-1.82.58-2.55.86a53.62,53.62,0,0,1,6.23-2.44c1.39-.49,2.64-1,3.8-1.39-4.16,1-5.58.83-4.33-.36s4.06-2.78,8.42-4.87h-.16l-1.66.68c-.64.25-1.17.44-1.59.59s-.66.19-.73.12c0-.37.42-.73,1.17-1.07a16.12,16.12,0,0,1,2.66-1l1.83-.48a13.39,13.39,0,0,0,3.08-1.07c0-.25-.48-.24-1.34,0A31.78,31.78,0,0,0,110.7,102a.34.34,0,0,0-.27.1c-1.2.42-2.29.81-3.26,1.13a3.14,3.14,0,0,1-2,.24c1.08-.42,2.2-.91,3.32-1.46a31.44,31.44,0,0,1,5.41-2.31c.23-.32.21-.49,0-.52a3.27,3.27,0,0,0-1.23.3c-.56.21-1.19.46-1.85.73-.29.16-.6.29-.89.43-.9.4-1.66.74-2.3,1s-1,.27-1,.08l3.61-1.47c1-.43,2.21-.92,3.6-1.48a5.49,5.49,0,0,1-1.76.17.82.82,0,0,1-.72-.29,2.49,2.49,0,0,1-.29-.59,1.46,1.46,0,0,0-.11-.41.67.67,0,0,0-.46-.3,3.35,3.35,0,0,0-1,0l-2.24-.08a13.55,13.55,0,0,1-3.48-.31c-.44-.22-.39-.64.19-1.25a19.63,19.63,0,0,1,4-2.68,20.07,20.07,0,0,1,4-2.1c1.92-.8,4.06-1.63,6.4-2.5-1.83.22-3.9.51-6.16.87q6.11-3.75,12.44-7.21c1.07-.5,2.17-1,3.32-1.48a.92.92,0,0,1,.16-.27c.2-.58.42-1.17.69-1.82a7.36,7.36,0,0,1,1.94-2.32c.52-.51,1.07-1.07,1.64-1.66a16.33,16.33,0,0,1,1.6-.92l-.31.76c-.1.33-.17.6-.22.85a5.45,5.45,0,0,1,.88-1.71c.19-.07.39-.15.65-.22-.1.25-.22.51-.32.76a15,15,0,0,1-.51,1.61c.15-.39.34-.83.54-1.34a5.94,5.94,0,0,0,.56-1.13h.08a9.49,9.49,0,0,1-1.17,2.74c-.3.63-.57,1.21-.78,1.72.85-1,1.48-1.53,1.89-1.5s.64.48.71,1.28c1.87-.65,3.8-1.28,5.8-1.87A104.07,104.07,0,0,1,151.9,73.1c1.7-.32,3.46-.6,5.24-.82a53.75,53.75,0,0,1,5.36-.54c.73-.08,1.53-.17,2.4-.2a63.82,63.82,0,0,1,7.31.39,47.05,47.05,0,0,1,5,.86,2.27,2.27,0,0,0,.5.17.31.31,0,0,1,.18.09,2,2,0,0,1,.48.06.25.25,0,0,0,.19.09.9.9,0,0,0,.28.08,9.39,9.39,0,0,1,1.16.41,14.29,14.29,0,0,1,1.54.58c.44.15.87.32,1.26.49.12,0,.25.12.39.17l1.46.76a.31.31,0,0,1,.18.09.25.25,0,0,0,.21.08c.18.12.39.24.57.34a4.6,4.6,0,0,0,.9.61l.78.53a6,6,0,0,1,.9.7,4.34,4.34,0,0,1,.8.61,3.23,3.23,0,0,1,.71.62l.1.09a24.22,24.22,0,0,1,5.45,7.18c.15.35.32.73.48,1.08.06.14.13.27.22.46l.23.54a.89.89,0,0,0,.12.38l.24.64.12.27v.19l.12.36c.08.3.18.61.27.91s.14.44.23.65v.18a10.81,10.81,0,0,1,.41,1.48,59.57,59.57,0,0,1,1.12,6.63,51.9,51.9,0,0,1-.63,13.63,61.53,61.53,0,0,1-3.87,12.66,83.87,83.87,0,0,1-5.84,11.25,101.74,101.74,0,0,1-6.8,9.92,1.54,1.54,0,0,0-.17.19,80.54,80.54,0,0,1-8.08,9.23,3.88,3.88,0,0,0-1.08.53c-.17.13-.27.23-.29.33a.9.9,0,0,1-.12.24.51.51,0,0,1-.07.24,3.47,3.47,0,0,1-.34.42.69.69,0,0,1-.18.16.24.24,0,0,1-.14,0h-.13a.41.41,0,0,0-.28.11q-6.63,6.36-13.26,11.62l-.28.15a.24.24,0,0,1-.18.05H157V171a.56.56,0,0,0-.28.1c-1.84,1.53-4,3.21-6.46,5.07-1,.73-2,1.5-3,2.28-.64.47-1.32.93-2,1.4s-1.37.94-2,1.4a1.14,1.14,0,0,0-.23.15v.15a1.54,1.54,0,0,0-.17.19.15.15,0,0,0-.13,0,.17.17,0,0,1-.14,0l-.1-.08a.21.21,0,0,0-.17.1l-.36.2-.41.26a2.59,2.59,0,0,1-.39.25c-1.4.93-2.83,1.9-4.22,2.9-1.82,1.32-3.73,2.6-5.75,3.82h-.09l-.54.17a1.2,1.2,0,0,0-.41.2,7,7,0,0,1-.74.46,2.22,2.22,0,0,0-.41.2c-.09.07-.15.14-.22.19a1.63,1.63,0,0,1-.17.2,1.94,1.94,0,0,1-.44.31,2,2,0,0,0-.43.39l-.52.31h-.1v-.09c-.07-.07-.09-.07-.09,0a1.84,1.84,0,0,0-.9.37,13.12,13.12,0,0,0-1.13.83,19.76,19.76,0,0,1-1.87,1.13c-.66.33-1.31.67-2,1-.18.07-.35.14-.54.2-.83.41-1.73.9-2.66,1.43,1.81-1.21,2.74-2.33,2.78-3.38a12.81,12.81,0,0,0-3.31,1.65,19.49,19.49,0,0,1-3,1.49v-.05l1.86-1c.71-.39,1.56-1,2.4-1.51.59-.34,1.15-.67,1.68-1l.71-.4c.71-.48,1.29-.87,1.76-1.21a4,4,0,0,0,1.68-1.56c.19-.44,0-.75-.68-.9a20.52,20.52,0,0,0-3.83,2A22.87,22.87,0,0,1,117,192.4h0a5.47,5.47,0,0,1-.58-.15q-5.16,2.77-10.36,5.24t-10.9,4.63a42,42,0,0,1-9.65,1.58,13.88,13.88,0,0,1-1.58,0l-.66-.15a2.11,2.11,0,0,1-.66-.05h-.09l1.19-.26a.91.91,0,0,0,.46-.1h.15a3.23,3.23,0,0,1-.44,0,3.61,3.61,0,0,1-.92.15H82a3,3,0,0,1-1-.32,27.64,27.64,0,0,0,4.6-.78,4.88,4.88,0,0,0-.84.13h-.18a.91.91,0,0,1-.46.1,1.09,1.09,0,0,0-.36.12h-.37a6.77,6.77,0,0,1-1.1.15H80.61a30.5,30.5,0,0,0,4.76-.59Zm42,9.82-.12.24L126,212l-.11.49V212H126l.86-.25Zm-3.51,4.91a1.76,1.76,0,0,1-.6,1.6l.46-2.44Zm-1.69,3.82-.13.24-.36-.11.11-.25Zm-3.92.52h.36l1.1.36-.11.13-1.16-.41-.19.3.11-.32Zm-2.68,2.71c0,.61-.36,1.1-1.22,1.35a10.54,10.54,0,0,0,1.09-1.71Zm-1.5-27.38-1,.54.76-.51Zm-1.3,30-.12.25-.25-.25.12-.25Zm-57.21,115c6.07-9.47,3.15-4.67,8.5-13.66a14.26,14.26,0,0,0,2.77-5.64c.48-2.1,1.7-3.2,2.18-5.3s1.45-2.69,3.25-8.46c.71-2.46,1.93-5.41,3.37-9.09,1.43-4.92,4.22-9.34,6.15-14.62a232.28,232.28,0,0,1,12.44-26.43c1.34-2.22,2.31-3,2.31-5.17,0-.74.48-1.47,1.57-2.09.13,0,1,0,1-.5,0-.25-.24-.61-.74-1,.25-.14,0,0,.5-.63l.24-.36c-.51-1.22-1-1.34-1-1.83s.49-.75.49-1c4.62-6,6.68-8.5,7-9.61,0-.61-.5-1.22-.52-1.7,0-1.35,1.11-.62,2.08-2.59a1.42,1.42,0,0,1,1.34-1l.73.12-.12-1.11a.91.91,0,0,1,.59-.86l.75.37,1-1.6,1.6.59c.12-.11-.13-.48,1.59-.86.85-.13,1.22-.24,1.69-1.37.25-1.09,1.47-1.35,1.84-1.6.11,0,.49-.36,1.33-1.23l.63,1.46,1.09-1c0-1.71,1.1-1.1,1.58-1.35s0-.25,1.34-1.6a2.46,2.46,0,0,0,1.09-2.21,3.6,3.6,0,0,1,1.22-2.59,3.49,3.49,0,0,0,1.09-2l1,1.33c4-7.24,10.1-11.2,18.54-12.12l1.49,2.8c0,.25-.12.38-.5.38-1.22.13-1.7.38-2.67,1.73a10,10,0,0,1-1.83,2.46V211l.63,1.22c0,.12-.12.23-.25.36a20.25,20.25,0,0,0-2.64,7.38c0,1.22,1.48,2.19,1.48,3.41l-.23,1.11c0,1.35,1.24,2.19,1.26,3.55a6.15,6.15,0,0,1-.73,2.08c0,.49.5,1.1.5,1.6s-.17.66-.47.69a.47.47,0,0,1,.48.28v.86c0,.61-.61.86-.61,1s2.1,1.09,2.1,2.06v.13l-.73.73c0,.49.38.61.86.86,0,.11-1.7.62-1.7,1s.74.61,2.1,1.33c-.37.37-1.36.63-1.36,1,.63.61,1,1.09,1,1.47s-.23.48-.72.86v0c.74.74,1.35.72,1.35,1.22s-.48.74-.48,1.23c0,1.22.88,1.34,1.63,5.63.27,2.94,1.75,6.11,1.8,11.5a2.52,2.52,0,0,0,1.85,2.31,9.76,9.76,0,0,0-1.47,1,3.52,3.52,0,0,0-.36,1.35,11,11,0,0,1,.51,2.33l-.11,1.85c.13.84-.1,1.71,1,2.56.5.36.74.72.74,1a7.92,7.92,0,0,0-.47,2.09,80.38,80.38,0,0,0,1.15,8.32l1,6.48c3.63-7.49,5.91-15.59,9.79-22.85,3.13-5.41,4.34-9.09,10-19.55,3.51-6.76,9.34-15.49,11-17.23a8.5,8.5,0,0,0,2.18-4.3,3.09,3.09,0,0,1,1.94-2l.37-.13c.49,0,.74-.13.74-.49l-.63-1,.36-.13c.37-.36.5-.61.5-.72-.38-1-.74-1.36-.76-1.85a1.41,1.41,0,0,1,.61-1.22l8.65-8.88a.59.59,0,0,0,.36-.63,4.67,4.67,0,0,1-.25-1.33c0-.75.48-1.24,1.34-1.74.48-.11,1.32-1.84,2.67-1.84l.86.11v-.86a.94.94,0,0,1,.73-1c.56,0,.19.43.62.48l1.32-1.58,1.74.71c.23-.86,2.44-.25,3.41-1.73s2.44-1.13,3.91-2.59l.25,1.58A44.13,44.13,0,0,1,235.6,196c1,2.2,1.12,2.44,1.12,3.05,0,.25-.11.37-.48.5-2.68.26-3.16,2.34-6,4a.6.6,0,0,0-.25.49l.25,1a1,1,0,0,1-.36.74c-5.35,5.18-6.57,6-6.55,8.74,0,2.2-1.7,2.22-2.06,4.67a4.66,4.66,0,0,1-2.3,3.45c-.86.36-.48,2.2-1.83,2.46h.13c-.24.5-.24,1.58-1.22,1.6-.36,0-.49.12-.49.25l.13.72A4.3,4.3,0,0,1,216,229c0,.86-.35,1.22-1.09,1.24-.25,0-.37.11-.37.47l.14.75-.14.11-1.46-.35c-.37,0-.61.12-.61.5a4,4,0,0,0,.75,2.08l-1.1-.12c-.61,0-.86.37-.86,1.22l-.11.75c-.12.24-.37.36-.86.38-.25,0-.37.11-.37.24l.25,1.47a.28.28,0,0,1-.23.25c-1,.25-1.47,1.11-1.7,2.57a13.47,13.47,0,0,1-1.7,3.57,16.35,16.35,0,0,0-1.81,3.56,23.94,23.94,0,0,1-4,6.9v.11a2.35,2.35,0,0,0-1.2,2,3.29,3.29,0,0,0,.49,1.7l-1.22-.11a2.43,2.43,0,0,0-2,1.73c-.59,1.85-1.93,3-2.79,4.31l-.11.74.13,1.34a1.14,1.14,0,0,1-.48,1,16.87,16.87,0,0,0-4,5.9,83.77,83.77,0,0,1-7,14.14,30.35,30.35,0,0,0-2.06,3.7c-6.77,13-9,19.42-14.39,29.38a51.91,51.91,0,0,0-2.77,5.9v.74c.61.48,2,1.2,2,1.45s-.14.25-.5.25l-2.34-.84a58.45,58.45,0,0,0-2.15,7.24c-.36,1.1-1.7,2-4,2.61a2,2,0,0,0,.49,1.46c1,.24,2.33.1,2.33.6l-.36.36-2.33.27c0,3.92.39,4.76.44,10.41,0,2.32-.23,3.79-1.81,5.41-.23.25-.23.61-.48.61a9.44,9.44,0,0,0-3.28,2.84l-6.14.28c-1.35-.73-3.07-1.21-3.07-1.82l.12-.36c0-.36-.5-.61-1.47-.61-7.48.05-9.24-6.06-9.26-10.1.18-9.32.64-13,.84-20.72,0-2.08-.89-3.55-.89-5.13v-.5c0-1.6-.76-3.43-.77-5.51a62.22,62.22,0,0,0-1.79-8.45,75.31,75.31,0,0,1-2.16-12.47A49.2,49.2,0,0,0,125.6,286a151.77,151.77,0,0,1-3.38-28.66c-.24.25-1,.25-1.09.38.11.86.49,1.34.49,1.7l-.11.13a2.58,2.58,0,0,0-1.46,2.71c-.59,3.18-1.81,4.78-2.52,7.13a17.88,17.88,0,0,1-3.27,7.12c-.48,1-.84,1.47-.84,2a4.44,4.44,0,0,0,.63,1.83,5,5,0,0,0-1.72.13c-1.47.74-1.22,2.59-2.56,4.19a5.6,5.6,0,0,0-1.07,2.46l.25,1.72a.71.71,0,0,1-.36.72c-1.59,1.24-3.4,4.69-5.2,10.22a60.41,60.41,0,0,1-4.47,9.83c-5.56,11.19-10.88,24.2-16.68,35l-1.82,3.31v1c1.12.85,1.85,1.09,1.85,1.46,0,.13-.23.24-.61.38l-2.21-1-2.18,4.56A54.78,54.78,0,0,1,74.38,360a3.5,3.5,0,0,1-.86,1.35v.11l-8.36-4.35H61.73a5.59,5.59,0,0,0-2,.87l.12-.25-.12-.11H57.52c-3.8,0-5.05-2.9-5.07-5.61v-2.93c0-2.84,1.67-5.54,3.12-7.64Zm211.2-134.71-.34.14.35-.14h0l1.1-.45.55-.22.19-.08h.08l.13-.05h0c1.67-.67,3.35-1.3,5.05-1.91,3.62-.87,7.23-1.72,8.58-1.39h.05v-.16h-.17l.21-.32a1.41,1.41,0,0,1,0,.29h.26l1.15-.85,3.93-.58a20,20,0,0,1,5.19-1c0,.09.11.18.44.22h.22a71.54,71.54,0,0,1,9.48-.63l-1-.09,2-.22v-.05H304l.29-.3a.39.39,0,0,1-.09.3h.6c.42,0,.83,0,1.25,0a14.58,14.58,0,0,0,3.88-.58,2.11,2.11,0,0,0,.61-.06h1.73a27,27,0,0,1,4,.51c0,.12,0,.23.39.38,0,0,.73.21,1.09.34l-1.09-.34a12.56,12.56,0,0,0-4.11-.85c-.76.42,1.88.78,4.71,1.5h.54l2,.76c.29.09.57.19.82.29.72-.05,2.91.15,0-.55a32.84,32.84,0,0,1,4.38.94,3.49,3.49,0,0,1,1.25.62c.23.29-.29.4.92.92a1.55,1.55,0,0,1,.43,0l1.76.56-.57-.32c.93.29,1.83.7,2.74,1.07-2-.92-3.36-1.81-5.46-2.75a15.87,15.87,0,0,1,5,1.73c1,.56,2.15,1.17,6,3-1.8-.41-1.17.23,3.57,3-.55-.56-1.17-1-1.76-1.52l.5.3-.84-.7a37,37,0,0,1,3.45,2.24,13,13,0,0,1,1.3.89c-1.51-1.32-3-2.59-1.61-1.85,1.78,1.7,2.7,2.51,3.24,3.15a5.54,5.54,0,0,1,1.14,1.65l1.05.84a19.33,19.33,0,0,1-2.72-1.29,11.8,11.8,0,0,0,1,1,24.55,24.55,0,0,1,2,1.81c3.06,2.31,2.44,1.48,2.11.82l-.25-.13a18.33,18.33,0,0,0-2.17-3l-1.49-1.25c.62.48,1.1.89,1.49,1.25,1,.92,1.9,1.89,2.76,2.76l.23.1a10,10,0,0,1,1.19,1.24l.74.89.46.61c.15.15.24.53.48.37l1.33-.27,1-.22,1.12-.27,1.29-.4-.27.07.57-.18a4.78,4.78,0,0,1,.76-.09,2.41,2.41,0,0,1,.65.12,1.58,1.58,0,0,1,.64.37,2.27,2.27,0,0,1,.49.66,1.71,1.71,0,0,1,.13.44c.11.61,0,.71.08.78s0-.05.07-.12l.07-.18a1.34,1.34,0,0,1-.07.18c-.1.25-.28.67-.29.6s0-.21,0-.4v-.3a3,3,0,0,0-.07-.51,4,4,0,0,1,0,.49v.28a1.92,1.92,0,0,1-.15.48,4.37,4.37,0,0,1-.33.69,12.9,12.9,0,0,1-.73,1.18l-.83,1.15c-.24.34-.52.7-.8,1.07a8.81,8.81,0,0,0,1-.83c.36-.33.72-.68,1.07-1.05a10.17,10.17,0,0,0,1.07-1.29,4.3,4.3,0,0,0,.54-1.07c.05-.15.08-.31.12-.46a2.32,2.32,0,0,0,0-.83,3.55,3.55,0,0,0-.09-.47,2.86,2.86,0,0,0-.37-.69,3.54,3.54,0,0,0-.57-.59,2.5,2.5,0,0,0-.53-.3,2.82,2.82,0,0,1,1.52,1.62,3.72,3.72,0,0,1,.14.74v.58a3.38,3.38,0,0,1-.16.7c-.07.18-.1.27-.17.44a7.86,7.86,0,0,1-.7,1.27,22,22,0,0,1-1.4,1.93l-.37.49-.13.18-.1.11a2,2,0,0,1-.37.34c.29-.32.38-.39,1-1.12a5.31,5.31,0,0,1-.83.88,2.91,2.91,0,0,1-.46.32c-.26.16-.47.23-.71.4a1.82,1.82,0,0,0,.19.64c.07.16.17.36.29.61l.58,1.2c-.36-.39-.74-.77-1.11-1.17s-.74-.86-1.16-1.41c.48-.9,1.26-2.06,2-3.43.23-.41.44-.84.63-1.26a38.19,38.19,0,0,1-3.5,4.6,47.61,47.61,0,0,1,5.81,20.51q0,1.29-.09,2.58a11.44,11.44,0,0,1,1.65-2.69c-.12-.33-.24-.68-.3-.28v-2.92l-.53.16a17,17,0,0,0-.78-5c-.38-1.2-.79-2.38-1.53-4.82.78,2,1.33,3.33,1.62,3.45a.1.1,0,0,0,.12-.08c-.21-1.18-.49-2.56-.84-4-.27-.38-.53-.75-.81-1.11a17.72,17.72,0,0,0-.85-4L358,227a4.52,4.52,0,0,1,.25.49l.24.59a32.31,32.31,0,0,1,1.66,5.07c.09.12.18.25.28.37.61,2.19.7,3.31.56,3.6.37,2,.53,3.48.53,3.48s.38-.43.66,1.86c.2,1.58.3,3.31.43,4,.44-.35.85-.32,1.21.3a47.93,47.93,0,0,1-2.39,14l-.9,1a39.8,39.8,0,0,1-2.35,7.55,1,1,0,0,1,.16.47,76.76,76.76,0,0,1-4.6,8.81l.39-.25.33-.22h0l.91-.58c-2.48,3.36-3.71,5-6.18,8.4l-.28.46v-.15l-1,1.32c-2,2.76-4.41,6.53-7.17,10.14A129.44,129.44,0,0,1,332,308.13c-1,1.21-2.05,2.29-3,3.29a29.6,29.6,0,0,1-3.08,2.61,86.94,86.94,0,0,1-6.34,6c-1.32,1.21-2.57,2.26-3.78,3.2a35.92,35.92,0,0,1-3.73,2.39c-1.22.73-2.43,1.47-3.71,2.13s-2.61,1.35-4,2.12a1.42,1.42,0,0,0,.33-.06c-1.05.63-2.08,1.3-3.17,1.86-.75.44-1.57.9-2.52,1.36l2.52-1.36a13.18,13.18,0,0,0,1.71-1.16c-.76.46-1.61.89-2.45,1.36-2.63,1.45-2.94,1.4-2.13.74a130.06,130.06,0,0,1-13.49,7.19c-3.3,1.53-6.19,2.74-8.54,3.62.83-.19,1.66-.37,2.48-.58l-2.83.92a2,2,0,0,1,.74-.05c2.73-.82,5.62-1.64,7.28-1.93-1.91,1-5.5,2-4.92,2.24-1.62.42-2.89.73-4.28,1-.68.11-1.4.25-2.2.37l-1.19.17-1.39.3,1.74-.57a23.24,23.24,0,0,1,2.91-1c1.24-.45,2.23-.84,1.42-.73a59.09,59.09,0,0,1-6.5,2.06h0c-2.15.78-4.4,1.53-6.71,2.23-.64.19-1.33.34-2,.51.39,0,.31,0-.89.42a9.3,9.3,0,0,0-1,.09c-1.45.34-3,.65-4.51.92-.32.13-.47.25-.35.33l1.92-.24,1.47-.44c-.52.18-.67.28-.61.32,1.57-.22,3.13-.47,4.63-.74s2.15-.51,2.59-.58l.34-.14c-1.44.23-2.92.41-5,.64a51.15,51.15,0,0,0,8-2l.62-.29-.4.22c.86-.26,1.65-.47,2.42-.64.39-.09.77-.16,1.16-.22h1.09l-.51.15-.43.14a6.24,6.24,0,0,1-.9.44l-2.68.9H268a11.9,11.9,0,0,1-3.62.82l-.29.12-2.3.46-2,.45h0c.82-.13,1.36-.21.89,0,.45.08-.87.53-2.56.92s-3.75.84-4.83,1.08c-1.24,0-2.47,0-3.7-.06-1.23.22-3.4.41-5,.52a30.58,30.58,0,0,0,3.45.1,37.62,37.62,0,0,1,4.49-.51A8.56,8.56,0,0,0,250,352c3.22-.12,6.15-.51,4.63.2-1,.05-2.06.06-3.07.05l.72-.12a8.44,8.44,0,0,0-2.3-.1c0,.09.3.13-1.44.07-1.74.11-3.67.24-5.4.23,1.61.12,2.45.26,1.48.54a19.72,19.72,0,0,1-2.86-.42h.69a5.24,5.24,0,0,0-.95-.3c-.3-.07-.64-.14-1-.19l-1-.13H239l-.37-.05c.24.07.24.11-.08.12s-.71,0-1.54,0h-.88c.33-.07.33-.16-.22-.29l-.2-.08c-2.31-.38-4.6-.89-4.53-1.47l1.78.44h.7l-.7-.14c-1.74-.29-3.43-.68-5.08-1.12,1.68.71,4.54,1.59,0,.57.41,0,.2-.14-.23-.36a15.14,15.14,0,0,0-1.64-.65,13.91,13.91,0,0,1-3-1,43.69,43.69,0,0,1-4.15-1.5c.86.47,1.88.94,2.74,1.36a7.51,7.51,0,0,0-1.79-.47l.51.23c1.19.45,3,1.15,4.32,1.74l.94.33a5.43,5.43,0,0,1,1.43.6c.11.13-.08.16-.94.08.47-.07-.28-.49-1.43-1-1.35-.48-3-1.11-4.32-1.74l-1.17-.43s1,.7-.34.29c.4,0,.22-.18-.3-.53-.26-.18-.61-.39-1-.62a14.53,14.53,0,0,1-1.51-.91l-.35-.25h-.28c.12,0,.12-.05.07-.15-.7-.47-1.48-1-2.17-1.57l-.6-.4-1.08-.76q-.6-.42-1.23-.78l-.18-.13h-.06l-2-1.38a35.66,35.66,0,0,1-6.78-7.26l-.31-.44c-.31-.5-.62-1-.92-1.42l-.11-.16a19.71,19.71,0,0,1-4.2.29l.22.1a5,5,0,0,0,2.14.13h.48a7.08,7.08,0,0,0,1.22-.07l-1.22.14c-.17,0-.23.06-.23.09h0s.1.09.23.14c.68.17,2.24.32,0,.4h-.38a6.86,6.86,0,0,1-1.69.09.11.11,0,0,1-.09-.05,2.47,2.47,0,0,1-1-.19,2.76,2.76,0,0,1-.65-.36,2,2,0,0,1-.31-.34h-.48a2.84,2.84,0,0,0,.77.85,3.42,3.42,0,0,0,.61.37c.28.15.38.2.35.25s-.2.08-.71-.09a3.2,3.2,0,0,1-.68-.42,2.86,2.86,0,0,1-.71-.84,1.63,1.63,0,0,1-.11-.23c-.52-.18-.71-.55-.26-1.18a3.36,3.36,0,0,1,.06-.63,3,3,0,0,1,.19-.6c.07-.15.14-.3.21-.42a5.36,5.36,0,0,1,.34-.49l.2-.27.24-.17c3-2.07,2.19-.93,2.19-.93s-1.39,1-1.92,1.29l-.19.12-.17.23-.3.42a3.77,3.77,0,0,0-.28.57,3,3,0,0,0-.13.52l.38-.28a3.4,3.4,0,0,1,.53-1.08l.09-.14.22-.16c.26-.2.59-.46,1-.74.08.07.42-.09.89-.37l.12-.17a4.31,4.31,0,0,1,.39-.46c-.47.29-.8.63-.58.21a2.72,2.72,0,0,1,.61-.46l-.14-.2-.15-.55c-.1-.25-.18-.49-.28-.74a5.67,5.67,0,0,0-1,.18c-.27.1-.55.16-.8.27l-.83.19c-2.18.57-4.23,1.2-5.55,1.52s-2,.35-1.76.14c.6-.11,1.22-.21,1.92-.36l2.08-.46a6.15,6.15,0,0,0,1.67-.86c-.52.1-.8.11-.72,0l1.13-.24a7.47,7.47,0,0,1,1.84-.54,9.88,9.88,0,0,0-1,.37c.37-.07.74-.15,1.12-.2a7.78,7.78,0,0,1,1.08-.28c.31-.09.52-.17.68-.23l-.13-.37a8.79,8.79,0,0,0-1.35.07l-.33.16c-1.59.29-10.27,3.61-11.86,3.91-.52.2-.83.2-1,.06-.71.23-1.27.4-1.63.49a1,1,0,0,0,.11.55c.27.3.52.23.77.26,1,.15,2.4.19,3.46.26a10.36,10.36,0,0,1-3.46.32,8.48,8.48,0,0,1-1.13-.11.84.84,0,0,1-.5-.28.75.75,0,0,0-.27-.23,2.08,2.08,0,0,1,0-.61c-.43-.12-.29-.76.29-1.74.21-1.13.68-2.29.41-2.49a27.08,27.08,0,0,1,2.63-3.23c.85-.92,1.65-1.7,2.4-2.42s1.51-1.4,2.33-2.1l1.29-1.08.71-.57.37-.29.28-.21-.29.25-.36.33-.64.63a10.53,10.53,0,0,0-1,1.12,21,21,0,0,0-1.4,1.83c.2-.16.41-.34.61-.52,1-1.07,2.07-2,3-2.82l-.53.3,1.23-1.17.39-.33h-.06a3,3,0,0,1-.68-.79l-.1-.19c-.35-.06-.68-.15-.79-.37.16-.08.29-.17.44-.25l-.62-1.13,2-.86c.57-.25,1.64-.89,1.64-.89s-1.06.66-1.62.93l-1.93.9.6,1,.19-.11-.55-.87,1.8-.73a11.89,11.89,0,0,0,1.86-1V309a.71.71,0,0,1,.15-.44v-.2c-.08-.89-.14-1.85-.14-2.88v-.88a1.31,1.31,0,0,1,.06-.27,77.43,77.43,0,0,1,.73-9c-.06.25-.12.53-.19.88.13-.89.25-1.55.37-2.11a91.13,91.13,0,0,1,11.18-31.7c.07-.38-.1-.32-1.09,1.19l-.14.22c.41-.82.85-1.56,1.25-2.23a28.88,28.88,0,0,0,1.86-3.24c1.32-2.18,2.51-4.13,3.65-5.81l1.62-2.48c.55-.77,1.09-1.51,1.59-2.22,2-2.84,4-5.27,6.22-7.92h0c0-.06.11-.11.15-.17l11.94-14.1-1,3.23a100.45,100.45,0,0,1,14.28-11.32c3.54-2.34,4.11-1.66,7.7-3.47.93-.64,1.9-1.24,2.86-1.83.86-.4,1.69-.86,2.53-1.22,1.27-.72,2.53-1.54,3.95-2.23h0a11.45,11.45,0,0,1,3-1.85C263.76,207.85,265,207.32,266.76,206.75Zm36.17,125.46c2.36-1.44,4.53-2.6,4.75-2.4C300.35,335.26,305.12,331,302.93,332.21Zm-15.43,6.64-.78.29.78-.29,3.36-1.22L287.91,339a2.64,2.64,0,0,1,.79-.16l.7-.29a37.24,37.24,0,0,0,3.88-2.45c-.22.23-1.78,1.41-.79,1.08-1,.51-3.09,1.37-3.09,1.37l-.69.31a10.08,10.08,0,0,1-2,1.06,26.23,26.23,0,0,0-2.79,1.31c-1.11.26,1-.72,2.69-1.53C288,338.91,289.16,338.27,287.5,338.85Zm7.71-1.44c-3.57,2.19-4.24,2.29-4.2,2.11s-.37-.4-.37-.4S295,337.19,295.21,337.41Zm-37.16,13.42c1.81-.35,3.44-1.09,5-1.19-5.37,1.27-.12.74-5,1.19ZM197.84,332h-.72a2.64,2.64,0,0,1-.8-.1l-.2-.07h0c-.26-.07-.9-.31-.9-.31s.55.2.9.31a5.53,5.53,0,0,0,.9.11,9.26,9.26,0,0,0,1.29,0h.35c.74.09,1.05.19.48.36h-.78a6.82,6.82,0,0,1-1.28.06c-.29,0-.42,0-.42-.06s.43,0,.76-.1S198,332.07,197.84,332ZM150.4,427.79a1.39,1.39,0,0,1-.12.28c-.13.33-.27.64-.44,1a1.27,1.27,0,0,1-.18.37,27.67,27.67,0,0,1-2.77,4.46,41.3,41.3,0,0,1-3,3.61l-.19.21a8.37,8.37,0,0,1-.62.57l-.67.73-1.64,1.5c-.32.29-.67.61-1,.93l-.14.1-.3.23-.83.68a1.43,1.43,0,0,1-.35.3,3.71,3.71,0,0,1-.56.49l-1.71,1.3-.23.15-1.18.93L132,447.34l-.87.51-.34.25-.1.07c-.94.57-1.87,1.16-2.76,1.73l-1.7,1c-.34.2-.7.39-1.06.57a4.08,4.08,0,0,1-.57.34l-.45.23-.4.22a5,5,0,0,1-.82.44l-1.4.79-.45.23-.34.18a6.27,6.27,0,0,0-1,.51l-.1,0-.43.18c-.39.21-.8.42-1.24.61a17,17,0,0,1-2.43,1.18,7.43,7.43,0,0,1-.76.35l-.3.18-.8.37c-.91.42-1.81.84-2.73,1.25h0l-.22.12-.2.07a1.14,1.14,0,0,0-.36.15L110,459l-.85.33c-.57.25-1.16.5-1.74.72L104,461.5l-.74.27-.68.24a2.74,2.74,0,0,0-.4.15l-.82.3-1,.37-.23.08h-.24a3,3,0,0,0-1.08.16l-.15.07-.28.18-.25.19a2.64,2.64,0,0,1-.71.31,1.43,1.43,0,0,1-.59.23,1.1,1.1,0,0,1-.67,0l-1.62.57c-3.12,1.06-6.2,2-9.17,2.82-3.63,1.06-7.29,2-10.86,2.76l-.35.06a2.35,2.35,0,0,1-.37.05,1.31,1.31,0,0,1-.52-.11c-1,.27-2.09.5-3.28.71a6.35,6.35,0,0,0-.74.16l-1.15.17a10.58,10.58,0,0,1-1.36.28,3.86,3.86,0,0,1-.75.1l-1.29.21-.73.11c-.62.12-1.24.21-1.87.27l-.16.08h-.28a7.45,7.45,0,0,0-.95.08l-.18.09h-.2a3.7,3.7,0,0,0-.57.07H59a6.64,6.64,0,0,1-1,.1c-.43.05-.84.08-1.26.1h-.58c-.59.06-1.32.1-2.15.12h-.68a9.63,9.63,0,0,1-1.28,0H50.79c-.39-.09-.92,0-1.4-.09a3,3,0,0,1-.51-.07,2.81,2.81,0,0,1-.71-.07l-.63-.06a3.75,3.75,0,0,1-.82-.1,1.41,1.41,0,0,0-.41,0h-.24l-.65-.14-.59-.14a1.64,1.64,0,0,0-.32-.05h-.42a1.76,1.76,0,0,1-.46-.06,1.77,1.77,0,0,1-.56-.09,1,1,0,0,1-.3-.13l-.25-.18-.12-.13-.18-.06-.28-.09a1.29,1.29,0,0,1-.51-.14,7.61,7.61,0,0,1-1.47-.54,25.75,25.75,0,0,1-2.48-1.34l-.19-.14a2.13,2.13,0,0,1-.56-.38l-.17-.11a1.43,1.43,0,0,1-.32-.28,11.06,11.06,0,0,1-1-.81,8.23,8.23,0,0,1-1-1l-.07-.08c-.27-.35-.53-.7-.82-1.05a11.59,11.59,0,0,1-1.4-2.9,13.61,13.61,0,0,1-.81-2.78c0-.53-.06-.95-.07-1.34v-.1a10.59,10.59,0,0,1,0-1.38,16.41,16.41,0,0,1,1.28-5.52,7.73,7.73,0,0,1,.59-1l0-.1.23-.37a.25.25,0,0,0,.06-.14v-.16l.09-.14c.11-.19.27-.45.48-.77l.51-.82a3.62,3.62,0,0,0,.41-.61l.07-.12a2.14,2.14,0,0,0,.23-.38l.06-.16.12-.16.17-.19a1.18,1.18,0,0,1,.11-.19,5.15,5.15,0,0,1,.58-.88l.52-.55c.25-.27.5-.55.74-.85l.28-.32.06-.07a1.76,1.76,0,0,1,.27-.34l.19-.3h.42c.22-.21.53-.52,1-1,.06-.08.17-.19.28-.31l.26-.29.07-.15.31-.33.12-.13.13-.14v-.13l.59-.59c.37-.34.68-.65,1-1l.18-.16a.65.65,0,0,0,.18-.15l.24-.25.25-.26a10.78,10.78,0,0,1,1.2-1.14l.12-.13a3.51,3.51,0,0,1,.6-.48l.23-.23a1.7,1.7,0,0,1,.31-.29l.1-.08c.27-.21.51-.37.78-.55l.27-.24.41-.34.29-.22a3.28,3.28,0,0,1,.56-.42,1,1,0,0,0,.18-.17l.11-.11.15-.08.26-.23a11.28,11.28,0,0,0,1.28-1l.16-.15,1,1.08c.45-.38.91-.75,1.39-1.11a15.33,15.33,0,0,1,1.81-1.3c.62-.5,1-.82,1.26-1l.19-.14.78-.52.6.72c.58.76.12,1.17-1.14,2.27l-.15.13-.19.06-.17.09h0c-.29.26-.63.55-1,.85-.16.13-.37.28-.61.44l-.1.11-.14.15-.14.17-.2.1c-.3.28-.6.54-.87.75l-.53.45h.11c3.77-3,7.71-5.91,11.69-8.69.67-.41,1.24-.79,1.79-1.19l4.12-2.94c1.21-.86,2.43-1.72,3.67-2.62.72-.48,1.45-1,2.14-1.5s1.22-.8,1.9-1.21a1.29,1.29,0,0,1,.32-.19c.3-.2.62-.4,1-.61l.58-.31.67-.38.15-.08a5.46,5.46,0,0,0,.78-.35c.6-.34,1.25-.67,2.11-1.08.34-.15.67-.32,1-.46.73-.39,1.46-.76,2.16-1.07q1.74-.72,3.27-1.26L96.6,409l-2.25,1.54,1.63-.27-3.64,2.36.1.15c-1.34.93-2.87,1.92-4.68,3,.22.67-.33,1.26-.64,1.56a7.44,7.44,0,0,1-1.33,1.24l-1.5,1.27h3.06l-3.28,1.87a7,7,0,0,0-.9.6v.85l-.43.3c-1.15.8-2.25,1.59-3.27,2.36.6-.21,1.11-.4,1.57-.59a18.06,18.06,0,0,1,2-.79,5.92,5.92,0,0,1,1.55-.36,1.22,1.22,0,0,1,1.26.62c.41.79-.27,1.57-.55,1.9a19.32,19.32,0,0,1-1.39,1.47c-.23.23-.5.47-.79.73l-.21.19-.17.19-.16.13-.3.22-.09.07a5.71,5.71,0,0,1-.72.67,47.93,47.93,0,0,1-3.83,3.13l-.62.46.53.72-1.42,1.28-1.43,1.2L72,439.53l-.81.71-.81.72-1,.94a8.43,8.43,0,0,0-.69.65l-.36.3-.32.26-2.11,1.95c-1.8,1.59-3.49,3.14-5.17,4.73-.23.19-.37.32-.51.45-.36.35-.73.69-1.12,1a4,4,0,0,0-.26.32h.34a4.8,4.8,0,0,1,.75-.09,2.52,2.52,0,0,1,.55-.08,1.86,1.86,0,0,1,.47-.09l1.27-.23.6-.1c.45-.07.86-.15,1.24-.24s.53-.13.81-.18c1-.23,2.13-.45,3.25-.67a6.94,6.94,0,0,1,1.09-.27c3-.74,6.23-1.6,9.38-2.55,2.22-.7,4.67-1.5,7.9-2.6.65-.25,1.39-.52,2.17-.76l.7-.28c.7-.27,1.4-.54,2.1-.83l2.25-.83.42-.14c.25-.11.52-.21.81-.31a6.41,6.41,0,0,1,.93-.41,2.62,2.62,0,0,1,.46-.19l.56-.22.21-.09c.59-.26,1.18-.5,1.75-.73l1.31-.58.21-.11.13-.06a6.63,6.63,0,0,0,.87-.36c.82-.37,1.64-.74,2.5-1.11a7.4,7.4,0,0,1,1-.44c.54-.26,1.08-.5,1.58-.72l2.37-1.18,1.78-.95c.21-.11.4-.2.58-.31l.19-.08.33-.12.8-.5a4.74,4.74,0,0,0,.79-.45l.26-.19h.18l.22-.1h0c.24-.15.5-.3.79-.45a1.78,1.78,0,0,0,.48-.28l.09-.06a2.94,2.94,0,0,1,.55-.3,3.65,3.65,0,0,1,.54-.32c.46-.28,1-.61,1.52-1l.28-.18a4.86,4.86,0,0,1,.54-.33c.53-.36,1.06-.73,1.61-1.09l.38-.25.35-.22c.42-.32.83-.61,1.22-.89a1.18,1.18,0,0,1,.32-.27,8.81,8.81,0,0,1,.85-.62l.07-.08.17-.13.15-.11.09-.09.53-.41a7,7,0,0,1,1-.72l1-.9.25-.07a2.12,2.12,0,0,0,.36-.21v-.09l.21-.21a1.51,1.51,0,0,1,.49-.6.52.52,0,0,1,.1-.11,1.33,1.33,0,0,1,.55-.35c.4-.42.77-.84,1.1-1.25s.53-.78.78-1.13a1.17,1.17,0,0,0,.25-.58v-.48l-.27-.34v-.12L130,418l-.11-.18-.3-.22a15.4,15.4,0,0,0-2.42-2c-1-.67-2.14-1.34-3.35-2-1.4-.92-2.84-1.78-4.46-2.66a3.91,3.91,0,0,1-.65-.24l-.8-.29c-.24-.1-.48-.19-.68-.29a2.77,2.77,0,0,1-.67-.27c-.5-.2-1-.42-1.48-.67l-.22-.08-.24-.1-.17-.06-.13-.1a5.66,5.66,0,0,0-.72-.28,7.62,7.62,0,0,0-.93-.18l-.27-.07a12,12,0,0,0-1.17-.48,7,7,0,0,1-1.08-.39c-.17-.05-.31-.11-.44-.16a3.38,3.38,0,0,0-.54-.17,5.37,5.37,0,0,1-.56-.21l-.47-.15-.32-.11-1-.29c-1.32-.46-2.63-.89-4-1.33a1.8,1.8,0,0,0-.4-.1h-.19a4.56,4.56,0,0,0-.52-.18h-.14c-.81-.26-1.63-.53-2.42-.83-.52-.15-1.07-.33-1.6-.53l-.4-.12-.5-.15a5.12,5.12,0,0,0-.67-.19h-.14l-.48-.16-1.21-.44c-.79-.3-1.58-.56-2.32-.8l-.61-.2-.27-.09-.38-.17-1.08-.44c-.38-.1-.75-.23-1.1-.36L88.1,400,88,400h-.07a2.67,2.67,0,0,1-.67-.29c-.51-.18-1-.39-1.53-.63l-.42-.14a4.71,4.71,0,0,1-.52-.21l-.19-.07-.23-.09h-.1c-.49-.22-1-.45-1.52-.63l-.11-.05a2.94,2.94,0,0,1-.64-.42,11.48,11.48,0,0,1-1.23-.58l-.52-.32-1.69-1-1.41-1.08-.26-.25a6.87,6.87,0,0,1-.92-.87l-1-.95a13.74,13.74,0,0,1-.92-1.1,18.51,18.51,0,0,1-1.26-2,3.62,3.62,0,0,1-.2-.55l-.06-.16a.56.56,0,0,0-.09-.17l-.13-.2a.82.82,0,0,0-.11-.28l-.16-.38v-.21l-.09-.19v-.25l-.12-.33a11.06,11.06,0,0,1-.45-2.13v-1.59a12.44,12.44,0,0,1,.16-1.69,14.88,14.88,0,0,1,.7-2.72v-.11c.17-.33.32-.67.45-1a6.64,6.64,0,0,1,.79-1.3l1-1.44.74-.81.27-.34h.06l1.14-.92a2.38,2.38,0,0,1,.52-.53l.27-.21h.08l.74-.53a7,7,0,0,1,1.13-.64l1.57-.86a1.15,1.15,0,0,1,.53-.2l1.15-.44c.89-.35,1.84-.66,2.65-.91q.52-.15.93-.3l1-.34,2.3-.59.36-.09a1.63,1.63,0,0,1,.53-.12l4.13-.91.44-.11.22-.05a11.28,11.28,0,0,1,1.52-.28l2.07-.41,4.25-.7.08-.1h.9l.53-.08,3.63-.37c3-.2,6.08-.36,9.48-.48h5.74l.68.07,1.37.06a8.28,8.28,0,0,1,1.3.13l1.11.06,1.23.14.61.06.6.06c1.05.11,2.05.25,3.08.44a28.19,28.19,0,0,1,3.51.89l.12.06.42.19.56.18a5.08,5.08,0,0,0,.85.31l.26.12a6.42,6.42,0,0,0,.86.46,8.55,8.55,0,0,1,1.07.59l.91.62a18.42,18.42,0,0,1,3.88,3.38l.22.24c.09.13.21.29.35.46a8.12,8.12,0,0,1,.48.67,14.72,14.72,0,0,1,1,1.35l.16.25v.09a16.1,16.1,0,0,1,1.45,3.39,20,20,0,0,1,.8,4.05,16.76,16.76,0,0,1-.29,4.18,17,17,0,0,1-3.17,7.07,16.2,16.2,0,0,1-2.61,2.56,15.67,15.67,0,0,1-2.69,1.63l-2.24,1,.55.39a32.39,32.39,0,0,1,3.6,2.9,29.73,29.73,0,0,1,3.49,3.78,24.31,24.31,0,0,1,3.25,5.19,28.38,28.38,0,0,1,1.16,3.24c.13.49.23,1,.32,1.43l.1.3v.2c.07.44.14.88.2,1.34a1.71,1.71,0,0,1,0,.32,10.47,10.47,0,0,0,.06,1.35v2a11.69,11.69,0,0,1-.16,1.45,10.33,10.33,0,0,1-.18,1.36c-.08.56-.18,1.11-.31,1.66v.14a10.41,10.41,0,0,0-.42,1.34A13.23,13.23,0,0,1,150.4,427.79Zm294-39.93v.08a8.88,8.88,0,0,1,1.39,2.33,1.22,1.22,0,0,0-.34.44H446v.16h-.1l-.12.08v.11a25.47,25.47,0,0,1,1.19,2.47c0-.06,0-.1.1-.08a3.5,3.5,0,0,1,.29-.54,1,1,0,0,0,.08-.67c.31-.66.67-1.39,1.06-2.17a37,37,0,0,0,2.34-5.36l.12-.19v-.37a.27.27,0,0,1,.21-.09q6.74-12.8,14.28-25.17a9.72,9.72,0,0,1,2.68-2.31c.72-.51,1.43-1,2.14-1.6a16.73,16.73,0,0,1,2-.86,2.34,2.34,0,0,1-.34.54,6.37,6.37,0,0,1-.58,1.17,8.71,8.71,0,0,1,1.32-1.76,6.14,6.14,0,0,1,.73-.22c-.23.49-.45.93-.69,1.35l-.68,1.17c.22-.35.53-.79.9-1.34.31-.4.61-.81.88-1.24a13.89,13.89,0,0,1-1.7,3,15.27,15.27,0,0,0-1.22,1.79c1.72-1.62,2.68-1.9,2.9-.87s-.16,2.77-1.12,5.19a8.32,8.32,0,0,1,.41-.85,4.5,4.5,0,0,1,.56-.81c.17-.2.31-.31.38-.29a.9.9,0,0,1,.09,1.26l0,0a9.61,9.61,0,0,1-1.25,1.53c-.29.35-.55.64-.77.88a1.12,1.12,0,0,0-.34.63c.26.15.55,0,.84-.34a14.81,14.81,0,0,0,1-1.48c.38-.6.73-1.12,1.07-1.56a1.49,1.49,0,0,1,1-.71,9.94,9.94,0,0,0-.72,1.83,8.93,8.93,0,0,1-1.37,2.61c.19.34.36.46.54.34a1.48,1.48,0,0,0,.5-.66c.15-.34.33-.71.57-1.14a6.26,6.26,0,0,1,.53-1.22c.18-.32.37-.42.58-.27-.07.12-.16.24-.23.36-.3.59-.59,1.12-.86,1.58s-.54,1-.85,1.57a1.88,1.88,0,0,1,1.26-.54,2,2,0,0,1,1,.37,2,2,0,0,0,.69.31,1.12,1.12,0,0,0,.82-.17l1.46-.42a9.25,9.25,0,0,1,2-.61,1,1,0,0,1,1.23.57,5,5,0,0,1-.17,2.89,4.88,4.88,0,0,1-.64,2.3c-.46,1-1,2-1.59,3.08.91-.62,1.86-1.28,2.86-2a8.26,8.26,0,0,0-.18,1.31c-.19,2.07-.45,4.12-.77,6.18A81,81,0,0,1,475,396.61l-.46.9q-2.6,4.49-7.43,14.17c-3.24,6.47-6.43,13.12-9.62,19.95v.09a44.63,44.63,0,0,1-2.65,5.26,1,1,0,0,0-.63.3c-.06.07-.11.12-.11.19s0,.1.1.1a.31.31,0,0,0,0,.19.15.15,0,0,1-.05.19c0,.13-.08.18-.22.17h-.15a.35.35,0,0,0-.16.08c-1.37,2.65-2.78,5.18-4.2,7.57,0,.07,0,.1-.07.14h-.1v-.1h-.1a.3.3,0,0,0-.22.07c-.31.73-.7,1.51-1.15,2.36s-1,1.91-1.5,2.88c-.37.73-.79,1.44-1.24,2.17v.19c.07,0,.1,0,.1.1l-.15.12h-.16a.18.18,0,0,1-.11.05.25.25,0,0,1-.11.17,1.05,1.05,0,0,1-.06.24.57.57,0,0,0-.07.22,15.61,15.61,0,0,0-1.48,2.8,19.59,19.59,0,0,1-1.17,2.55h-.1l-.22.17a.35.35,0,0,0-.15.17,1.14,1.14,0,0,0-.17.35.47.47,0,0,0-.12.27.61.61,0,0,0,0,.19v.29c0,.12-.1,0-.1.08v.19a.45.45,0,0,0-.11.19v.18l-.11-.1h-.2a1,1,0,0,0-.22.39c-.09.22-.17.46-.25.7a10.46,10.46,0,0,1-.46,1,5,5,0,0,1-.56.8,6.83,6.83,0,0,0-.9,1.63,2.4,2.4,0,0,0-.68-2.53,2.87,2.87,0,0,0-1.1,1.59,3.1,3.1,0,0,1-.8,1.45c-.15.35-.26.57-.29.62s0-.11.09-.56a.24.24,0,0,0,.2-.06c.24-.61.51-1.34.83-2.19l1-2.48c.4-1.1,0-1.68-1.22-1.73a4.73,4.73,0,0,0-1,2,6.72,6.72,0,0,1-.69,1.46h-.11a1.27,1.27,0,0,1-.51.05c-.45.85-.88,1.66-1.27,2.44-1.37,2.65-2.71,5.28-4,7.87a7.91,7.91,0,0,1-1.73,1.92,14.09,14.09,0,0,0-1.53,1.56,15.67,15.67,0,0,1-1.35.82l.11-.27.12-.38a.93.93,0,0,1,0-.29,8.93,8.93,0,0,1-.61,1.09h-.1l-.1.08a.31.31,0,0,0-.2.07v-.46c.07-.06.12-.11.12-.18a.55.55,0,0,1,.12-.27,5.53,5.53,0,0,1,.36-1.11c-.07.19-.16.36-.22.55l-.22.27a.45.45,0,0,1-.12.27.86.86,0,0,1-.14.46c0,.07,0,.08-.1.08s0,.12,0,.19v.1a.3.3,0,0,0-.12.17v-.37a1.83,1.83,0,0,0,.12-.46,2.82,2.82,0,0,1,.23-.46v-.08c.09-.19.16-.38.24-.56s.31-.48.44-.72a9.82,9.82,0,0,0,.6-1.27c-1.24,1.46-1.94,1.82-2.11,1a10,10,0,0,1,.66-4.4.3.3,0,0,0-.1.19l-.3.68a6.16,6.16,0,0,1-.34.68c-.12.18-.21.23-.27.17a.54.54,0,0,1-.21-.73,3.68,3.68,0,0,1,.61-1l.46-.71a3.65,3.65,0,0,0,.78-1.26c-.2-.08-.41,0-.63.38a8.09,8.09,0,0,0-.69,1.3c-.07,0-.1,0-.1.09-.24.47-.48.91-.73,1.3a1.38,1.38,0,0,1-.72.65c.17-.49.34-1,.5-1.48a7.51,7.51,0,0,1,.95-2.37c-.12-.21-.24-.27-.34-.22a1,1,0,0,0-.33.44,4.12,4.12,0,0,0-.3.83c-.09.12-.15.24-.22.35a4.45,4.45,0,0,1-.37,1.06c-.16.27-.29.37-.43.29.31-.6.56-1.12.75-1.58s.42-1,.66-1.6a2.93,2.93,0,0,1-.65.51.78.78,0,0,1-.56.09,2.25,2.25,0,0,1-.45-.19,3.62,3.62,0,0,0-.55-.2.91.91,0,0,0-.66.18c-.42.21-.81.43-1.17.65a4.76,4.76,0,0,1-1.66.69c-.34,0-.58-.18-.68-.62a4.41,4.41,0,0,1,0-2.28,4.5,4.5,0,0,1,.48-2c.35-.87.76-1.77,1.22-2.74-.64.58-1.36,1.23-2.15,2v-.18c.26-2.06.51-4.13.77-6.18a64.23,64.23,0,0,1,2.54-7.5c-.36.07-.76.1-1.27.17s-1.27.1-2.09.12a39.5,39.5,0,0,1-5.31-.55,5.09,5.09,0,0,0,.85.23,6.86,6.86,0,0,1,1,.22h.31c.47.08,1,.2,1.58.35-.21.21-.7.27-1.48.17a13.61,13.61,0,0,1-2.51-.57c-.85-.19-1.66-.41-2.44-.65-1-.3-1.73-.49-2.21-.59-.1.12.26.3,1.07.57a28.07,28.07,0,0,0,3,.77l2.2.42c.73.19,1.39.34,2,.48a3.55,3.55,0,0,1,1.19.39c-.73-.09-1.49-.17-2.27-.28a5.49,5.49,0,0,0-.7-.05c-.53-.1-1.05-.17-1.58-.22a33.71,33.71,0,0,1-4.33-.93c-.25.07-.35.12-.28.17a1.56,1.56,0,0,0,.47.22,21.25,21.25,0,0,0,2.51.58c.68.15,1.34.27,2,.35a15.57,15.57,0,0,1,1.65.29c.43.1.61.17.56.22a10.79,10.79,0,0,1-1.65-.2.52.52,0,0,0-.32-.07l-.63-.15a8.24,8.24,0,0,1-1.1-.22c-1-.19-2.24-.44-3.62-.78.65.24,1.12.44,1.45.59a5.6,5.6,0,0,0,.59.12,4.75,4.75,0,0,1-.53-.05,1.57,1.57,0,0,1,.38.3c.08.11.12.21.08.28a1.48,1.48,0,0,1-.1.27.58.58,0,0,0,0,.32.86.86,0,0,0,.26.31,3.44,3.44,0,0,0,.68.37c.79.41,1.61.8,2.47,1.2a10.3,10.3,0,0,1,2.16,1.12c.37.31.15.5-.68.56a10.58,10.58,0,0,1-1.78,0c-.83-.05-1.85-.14-3-.27a25.29,25.29,0,0,1-4.48-.77,61.63,61.63,0,0,1-6.23-1.76,50.77,50.77,0,0,0,5.26,2.39c-4.54-.7-8.94-1.54-13.2-2.56q-7.17-1.89-15.73-5T356,442.66l-1.66-.59c-1.54-.65-3.39-1.39-5.57-2.22-1.9-.8-4-1.62-6.41-2.46v.08c-.14.36-.27.7-.41,1-.05,0-.08.08-.08.12h0v-.08h-.08a.3.3,0,0,0-.16.08c-.17.58-.39,1.22-.66,2s-.63,1.65-.88,2.43a17.54,17.54,0,0,1-.68,1.88V445s0,0,0,.06a.07.07,0,0,1-.05.09h-.14v.08a.24.24,0,0,1-.07.16.38.38,0,0,1,0,.15.4.4,0,0,1-.1.15c-.28.8-.51,1.58-.73,2.36a19.71,19.71,0,0,1-.75,2.1v.07a1.33,1.33,0,0,0-.19.14.39.39,0,0,0-.06.15,1,1,0,0,1-.17.27,1,1,0,0,1,0,.24.38.38,0,0,0,0,.15v.24a.29.29,0,0,1-.06.22.67.67,0,0,1-.07.24V452s0-.05-.07-.05h-.08a.88.88,0,0,0-.17.35,4.5,4.5,0,0,0-.17.6,3,3,0,0,1-.19.78,2.27,2.27,0,0,1-.36.69c-.18.43-.37.87-.54,1.34a2,2,0,0,0-.73-1.93,2.84,2.84,0,0,0-.63,1.32,2.52,2.52,0,0,1-.47,1.26,5.6,5.6,0,0,1-.17.54,1.28,1.28,0,0,1,0-.39l.15-.15c.13-.48.27-1.07.44-1.8s.39-1.51.53-2c.15-.93-.21-1.37-1.09-1.3a3.72,3.72,0,0,0-.61,1.64,6,6,0,0,1-.41,1.24h-.07a.86.86,0,0,1-.39.06c-.22.68-.47,1.36-.74,2-.77,2.24-1.54,4.46-2.29,6.65a4.52,4.52,0,0,1-1.07,1.65l-1,1.41a6.85,6.85,0,0,1-.9.71v-.22l.05-.32a3.06,3.06,0,0,1-.27.71h-.15v.08h-.07a.21.21,0,0,1-.15.07l.06-.15v-.24c0-.05,0-.07.06-.07s0-.2,0-.32a1.86,1.86,0,0,1,.12-.41.12.12,0,0,0-.05.1c0,.11-.1.22-.14.33a.67.67,0,0,0-.05.37c0,.07,0,.09-.09.09s0,.1,0,.15v.08l-.07.09a1,1,0,0,1,0-.24,1.74,1.74,0,0,0,.05-.39,1.79,1.79,0,0,0,.13-.39v-.09a3,3,0,0,0,.14-.39,4.48,4.48,0,0,0,.2-.62,8.94,8.94,0,0,0,.32-1c-.76,1.25-1.23,1.56-1.42,1a7.74,7.74,0,0,1,.12-3.58.21.21,0,0,0-.07.15,5.66,5.66,0,0,1-.15.59,2.6,2.6,0,0,1-.21.55c-.08.13-.13.2-.18.2a.64.64,0,0,1-.16-.58,4.79,4.79,0,0,1,.31-.9,4.25,4.25,0,0,1,.29-.56,3.26,3.26,0,0,0,.47-1.08c-.15-.05-.3.06-.44.35a6.78,6.78,0,0,0-.4,1.06.26.26,0,0,1-.07.15c-.14.37-.29.73-.43,1.07s-.3.52-.51.57a5.73,5.73,0,0,0,.26-1.23,8.64,8.64,0,0,1,.51-2q-.08-.23-.21-.15a1,1,0,0,0-.2.36q-.1.27-.24.66a1.32,1.32,0,0,1-.06.39c-.09.31-.16.58-.23.78s-.15.31-.25.31c.12-.51.24-.95.36-1.33s.25-.8.42-1.32a2,2,0,0,1-.44.47,1.5,1.5,0,0,1-.42.09.89.89,0,0,1-.36-.07.86.86,0,0,0-.43-.15.82.82,0,0,0-.49.24,6.84,6.84,0,0,0-.74.56,4.16,4.16,0,0,1-1.21.73c-.25.05-.44-.09-.58-.4a5.53,5.53,0,0,1-.08-1.86,1.15,1.15,0,0,1,0-.37,19.89,19.89,0,0,1-2.24-.21,24.29,24.29,0,0,1-4.48-.78,60.54,60.54,0,0,1-6.23-1.75,50.85,50.85,0,0,0,5.26,2.4c-4.55-.7-8.94-1.57-13.2-2.58q-7.18-1.89-15.73-5c-5.67-2.07-11.08-4.17-16.27-6.31-.53-.2-1.09-.41-1.67-.59-1.54-.67-3.39-1.41-5.56-2.24q-2.85-1.2-6.41-2.45v.07c-.14.37-.28.71-.41,1-.05.05-.09.08-.09.12h0v-.07h-.09a.24.24,0,0,0-.15.09c-.17.56-.41,1.22-.68,1.95s-.61,1.63-.87,2.43a18,18,0,0,1-.67,1.86v.24c0,.09,0,.07-.07.07h-.12v.07a.23.23,0,0,1-.06.16.22.22,0,0,1,0,.16.34.34,0,0,1-.1.16c-.27.78-.51,1.56-.73,2.34a20.56,20.56,0,0,1-.74,2.1v.09a.47.47,0,0,0-.19.12.3.3,0,0,0-.07.15.77.77,0,0,1-.17.27,1,1,0,0,1,0,.24.38.38,0,0,0,0,.15V453a.34.34,0,0,1-.07.24.48.48,0,0,1-.07.23h-.15a1.19,1.19,0,0,0-.17.36,3.86,3.86,0,0,0-.17.58,3.4,3.4,0,0,1-.18.78,3.16,3.16,0,0,1-.36.71q-.28.62-.54,1.32a2,2,0,0,0-.73-1.93,2.77,2.77,0,0,0-.63,1.34,2.78,2.78,0,0,1-.48,1.24,5.18,5.18,0,0,1-.17.56,2.54,2.54,0,0,1,0-.39,1.22,1.22,0,0,0,.15-.17c.14-.46.28-1.05.44-1.78s.4-1.51.53-2c.15-.93-.2-1.36-1.09-1.31a4.07,4.07,0,0,0-.61,1.65,6.16,6.16,0,0,1-.4,1.26H242a.88.88,0,0,1-.39.08c-.22.68-.48,1.36-.75,2-.76,2.24-1.52,4.44-2.29,6.63A4.21,4.21,0,0,1,237.5,466l-1,1.42a10.26,10.26,0,0,1-.89.71v-.23l0-.31a3.53,3.53,0,0,1-.28.7h-.15v.08h-.07a.24.24,0,0,1-.15.09l.07-.16v-.23c0-.05,0-.09.07-.09a1.5,1.5,0,0,0,0-.3,1.83,1.83,0,0,0,.12-.46.29.29,0,0,0,0,.13c-.05.12-.08.22-.13.33a1,1,0,0,0-.07.39.09.09,0,0,1-.07.08.38.38,0,0,0,0,.15v.07l-.07.09a1,1,0,0,1,0-.24,1.27,1.27,0,0,0,0-.39,2,2,0,0,0,.14-.39v-.07c.05-.13.09-.26.13-.39a3.33,3.33,0,0,0,.21-.63c.13-.37.24-.71.32-1-.76,1.26-1.24,1.58-1.43.95a7.93,7.93,0,0,1,.12-3.56.2.2,0,0,0-.06.15,3.72,3.72,0,0,1-.16.58,2.35,2.35,0,0,1-.2.56c-.09.12-.14.19-.19.19a.61.61,0,0,1-.15-.58,5.63,5.63,0,0,1,.31-.9,4.53,4.53,0,0,1,.27-.54,3.12,3.12,0,0,0,.49-1.1c-.15-.05-.31.06-.44.35a5.86,5.86,0,0,0-.41,1.05.21.21,0,0,1-.08.17l-.41,1.06c-.14.34-.31.54-.51.59a4.94,4.94,0,0,0,.25-1.26,9.33,9.33,0,0,1,.51-2c-.06-.15-.12-.2-.2-.15a.84.84,0,0,0-.22.36c-.07.18-.14.4-.22.66a1.34,1.34,0,0,1-.07.39c-.08.32-.15.58-.22.78s-.15.32-.25.32a11.64,11.64,0,0,1,.35-1.32c.1-.38.26-.82.43-1.34a1.44,1.44,0,0,1-.45.47,1,1,0,0,1-.42.09.89.89,0,0,1-.36-.07.79.79,0,0,0-.42-.15.78.78,0,0,0-.49.25,5.7,5.7,0,0,0-.75.54,3.79,3.79,0,0,1-1.2.73.49.49,0,0,1-.58-.37,5.35,5.35,0,0,1-.09-1.87,4.15,4.15,0,0,1,.14-1.68c.17-.69.39-1.44.66-2.22a19.13,19.13,0,0,0-1.39,1.73v-5.12A56.73,56.73,0,0,1,231,441a5,5,0,0,1,.12-.63c.87-2.29,2.07-5.83,3.63-10.62L232.31,415c2.56-.51,5.14-1.07,7.76-1.68.1-.22.19-.46.27-.69.13-.08.25-.17.37-.26v-.15c0-.05,0-.07-.08-.07V412a.66.66,0,0,1,.06-.2c0-.05,0-.07.07-.07h.12v-.08c.46-1.21.92-2.38,1.38-3.52.56-2.08,1.14-4.14,1.76-6.17l1-1.73c.1-.31.18-.61.27-.94a1.3,1.3,0,0,1,.2-.45,3.06,3.06,0,0,1,.17-.48.83.83,0,0,0,0-.54c.17-.58.37-1.17.59-1.8.41-1.21.77-2.38,1.07-3.51-.22.05-.44.12-.69.17-.82.27-1.72.52-2.68.74s-2,.55-3.14.83-2.16.58-3.23.9c-.61.12-1.2.21-1.76.28a4.13,4.13,0,0,1-.78.08l-.17.05v.07a4.69,4.69,0,0,1,0,.53,6.25,6.25,0,0,1,0,1.06v.15a1.22,1.22,0,0,0-.06.26v.69l-.11.29v.22a1.06,1.06,0,0,1-.07.45,2,2,0,0,0,0,.49V400c-.14,1.07-.34,2.22-.6,3.49a88.4,88.4,0,0,1-2.06,8.65,142.87,142.87,0,0,1-6.42,17.48c-.52,1.24-1,2.39-1.58,3.51-.08.23-.17.44-.25.63l-1.16,2.5-1.23,2.28a83.29,83.29,0,0,1-5.53,8.6l-.27.31a69.8,69.8,0,0,1-6.88,7.7l-.12.12-.15.07a2.46,2.46,0,0,0-.56.34v.13l-.43.46a1.83,1.83,0,0,1-.33.35,1.33,1.33,0,0,1-.35.36l-.25.12a1.34,1.34,0,0,1-.27.07,62.88,62.88,0,0,1-8.08,6.28,48.81,48.81,0,0,1-8.43,4.81,32,32,0,0,1-5.3,1.77,25.13,25.13,0,0,1-6.22.84H178c-.57-.05-1.16-.12-1.78-.2h-.34l-.75-.11H175l-.6-.09-.56-.15a21,21,0,0,1-4.09-1.31,22,22,0,0,1-4-1.85c-.49-.32-.94-.63-1.34-.91h-.06l-.52-.48c-.29-.26-.58-.5-.86-.73l-.35-.33-.26-.25a6.61,6.61,0,0,0-.58-.47l-1.22-1.13a24.85,24.85,0,0,1-3.89-5.34,1.35,1.35,0,0,1-.19-.33l-.51-1c-.17-.3-.34-.63-.54-1a2.32,2.32,0,0,1-.16-.44,7.67,7.67,0,0,1-.38-.89c-.08-.14-.14-.29-.21-.44l-.48-1.15-.09-.38a55.49,55.49,0,0,1-2.37-9.67,1.21,1.21,0,0,1-.13-.42v-.62a3.45,3.45,0,0,1-.11-.54v-.12a1.34,1.34,0,0,1,0-.4c-.08-.69-.13-1.37-.16-2v-.58a1.47,1.47,0,0,1,.05-.55v-2a.54.54,0,0,0,0-.18l0-2,.11-1a79.81,79.81,0,0,1,1-8c.07-.32.13-.61.2-.9s.11-.51.16-.76a1.8,1.8,0,0,1,.1-.46,1.61,1.61,0,0,1,.12-.6,2.46,2.46,0,0,1,.14-.38l.17-.82.47-1.69a6.61,6.61,0,0,1,.4-1.38v-.28l.06-.16a70.94,70.94,0,0,1,2.52-7.36,61,61,0,0,1,7.53-14,36.87,36.87,0,0,1,2.37-3.21l.2-.22a4.65,4.65,0,0,1,.53-.63l2.09-2.42.32-.34.69-.77c.32-.31.57-.56.83-.79l.71-.68c1.08-1,2.06-1.91,3-2.72l.47-.36,1-.9.53-.47v-1.05l.55-.27.23-.12a1.31,1.31,0,0,1,.52-.44l.18-.22.24-.07.37-.28.17-.12a1.33,1.33,0,0,1,.19-.14,3.65,3.65,0,0,1,.36-.31l.13-.11-.87.3-1.23.42a7.11,7.11,0,0,1-2.35.62,1.15,1.15,0,0,1-1.16-.54c-.45-.73.1-1.54.33-1.88a8.3,8.3,0,0,1,1.23-1.41c.22-.24.55-.57.91-.89l.92-.74L178,374h.06l-2.79,1,6.65-4.67a47.12,47.12,0,0,1,12.22-6.17,44.75,44.75,0,0,1,8-1.73c1.33-.17,2.77-.3,4.41-.39H207l.38-.08h3a3.81,3.81,0,0,0,.59.05h.92a24.41,24.41,0,0,1,6.94,1.75l.38.19.83.38.42.2c.6.34,1.12.64,1.65.92l.49.31,1.11.72.47.35.27.26.68.49a1.67,1.67,0,0,1,.28.25l1.12,1.05.6.63a1.51,1.51,0,0,1,.23.21l.19.19.24.31c.23.26.47.55.7.83l.36.45,1,1.35.2.31c.1.18.21.35.3.49l.26.37c.07.12.14.24.2.36h0l.11.19c.24.44.45.83.62,1.21s.4.83.61,1.33a2.77,2.77,0,0,1,.26.48l.19.19,0,.43.06.14.13.23v.32a10.81,10.81,0,0,1,.71,2c.12.34.21.68.27.92a2.17,2.17,0,0,1,.13.56,5,5,0,0,1,.22,1.07,2.07,2.07,0,0,1,.11.55c.2.94.35,1.89.46,2.82v.54a3,3,0,0,1,.13.72l0,1.17a.67.67,0,0,1,0,.2v1.74l-.06,2a7.21,7.21,0,0,1,0,.93v.09c.25-.11.5-.21.77-.35a.23.23,0,0,1,.16-.06c.35-.17.73-.33,1.13-.5.92-.37,1.8-.74,2.67-1.13s1.71-.73,2.42-1.05c-.9.32-1.82.6-2.75.83a7.28,7.28,0,0,1-1.54.25c-.68,0-.71-.27-.12-.85q2-1.73,9.2-5.29c-.87.39-1.8.8-2.82,1.22-.46.17-.85.31-1.19.41s-.49.13-.49.08c0-.3.46-.64,1.26-1s1.74-.75,2.81-1.14a15.8,15.8,0,0,0,1.77-.56c.51-.17,1-.3,1.37-.42a1.7,1.7,0,0,0,.53-.24.18.18,0,0,0,.07-.15l.15-.33c-1,.34-2.12.77-3.43,1.31s-2.54,1-3.66,1.39a6.1,6.1,0,0,1-2.29.58c1.1-.54,2.24-1.1,3.39-1.7a49.3,49.3,0,0,1,5.92-2.58c.31-.32.32-.45.07-.42a5.53,5.53,0,0,0-1.31.41c-.61.23-1.27.52-2,.84a5.13,5.13,0,0,0-1,.41c-1,.43-1.78.8-2.46,1.09s-1,.37-1,.22l3.46-1.46c1-.44,2-.9,3.22-1.38l1.14-.49a9.15,9.15,0,0,1-1.88.34c-.39,0-.65-.07-.75-.22a1.38,1.38,0,0,1-.25-.46.85.85,0,0,0-.14-.34.6.6,0,0,0-.44-.23,5.6,5.6,0,0,0-1,.06,14.89,14.89,0,0,0-2.31.19,19.38,19.38,0,0,1-3.49.07c-.53-.15-.48-.53.17-1.14a25.69,25.69,0,0,1,4.51-2.83,9.61,9.61,0,0,1,1.73-1l1.21-.56a1.77,1.77,0,0,1,.54-.25.18.18,0,0,1,.15-.07.46.46,0,0,1,.22-.17,2,2,0,0,0,.46-.24.77.77,0,0,1,.37-.08c.41-.22.82-.42,1.21-.65a13.2,13.2,0,0,1,1.53-.56.49.49,0,0,1,.23-.08c.77-.32,1.55-.63,2.36-.9a.21.21,0,0,1,.07-.15.28.28,0,0,1,.07-.17h-.31a.53.53,0,0,1-.3.09,11.64,11.64,0,0,0-1.31.25c-.58.11-1.15.26-1.76.41a1.82,1.82,0,0,1-.33,0l-.52.15c-.16.07-.31.12-.46.17a1.22,1.22,0,0,0-.46.09l.81-.48.92-.56,1.73-1,1.82-1a9.13,9.13,0,0,1,1.13-.56.51.51,0,0,0,.07-.24c0-.1.09-.2.14-.31a7.48,7.48,0,0,1,1.83-2.13c.44-.41.9-.89,1.39-1.41a7.87,7.87,0,0,1,1.44-.82,1.56,1.56,0,0,0-.2.56,6.37,6.37,0,0,0-.36.85,5.93,5.93,0,0,1,.78-1.47,3.38,3.38,0,0,1,.62-.26c-.14.32-.28.63-.41.95s-.27.8-.41,1.17c.14-.32.32-.71.56-1.19l.49-1H262a13.65,13.65,0,0,1-1.1,2.51,4.63,4.63,0,0,1-.29.54.21.21,0,0,0,.15-.07c.41-.17.83-.35,1.29-.57l.77-.33c.35-.15.67-.32,1-.47.66-.22,1.34-.48,2.05-.75a5.77,5.77,0,0,0,1.07-.41,9.94,9.94,0,0,0,1.16-.4,5.15,5.15,0,0,0,.76-.24c.51-.17,1-.34,1.59-.49l.31-.09.3-.17a.78.78,0,0,0,.4-.08.63.63,0,0,0,.3-.07c.46-.12.88-.24,1.31-.34,1.63-.39,3.32-.78,5.05-1.17s3.65-.65,5.55-.88,3.87-.51,5.87-.65a57.16,57.16,0,0,1,6.14,0l.79.07h.78a.64.64,0,0,0,.3.08,5.6,5.6,0,0,1,1,.06h.3a1.4,1.4,0,0,0,.41.06h.37l.48.07a11.66,11.66,0,0,1,1.8.2c.2.06.42.09.63.14a1.14,1.14,0,0,1,.32.07H303l.71.15.55.14.63.15a5.27,5.27,0,0,1,1.1.37h.17a20.47,20.47,0,0,1,2.29.89,5.7,5.7,0,0,1,.88.38,1,1,0,0,0,.24.15.21.21,0,0,1,.15.07c.32.15.61.3.88.46a.27.27,0,0,1,.17.06,13.28,13.28,0,0,1,1.68,1.07,8.54,8.54,0,0,1,.88.6c.23.15.46.34.73.54,0,.05,0,.07.09.07l.58.54.49.46c0,.05,0,.07.08.07.21.2.43.44.65.69l.51.61.15.16a1.85,1.85,0,0,1,.25.37l.09.08c.05.06.12.11.17.16s0,.07.08.07V370a.81.81,0,0,0,.17.24c.22.35.48.73.77,1.13s.56.95.85,1.46a2.5,2.5,0,0,0,.27.63.58.58,0,0,1,.08.22.36.36,0,0,1,.09.24,6.53,6.53,0,0,1,.35.7v.15a.19.19,0,0,1,.09.15.28.28,0,0,0,.08.15v.16c.05.18.12.36.19.54.11.47.25.9.37,1.32a.81.81,0,0,1,0,.22c.06.38.13.77.22,1.17v1.4A18.53,18.53,0,0,1,320,386c-.08.26-.17.51-.25.79a4.52,4.52,0,0,1-.36.78c-.14.28-.29.83-.47,1.23,0,.13-.09.26-.14.39-.24.48-.48.95-.7,1.43l-.15.15c-.13.26-.29.53-.42.78a6.44,6.44,0,0,1-.36.63v.09a47,47,0,0,1-3,4.15,67.47,67.47,0,0,1-7.21,7.43,100.66,100.66,0,0,1-8.6,6.52,134.43,134.43,0,0,1-20,11.15c-3.19,1.44-6.43,2.8-9.74,4.05a8.41,8.41,0,0,0,.95.36l.24.12H270a.16.16,0,0,1,.12.07.82.82,0,0,1,.2.12.4.4,0,0,1,.12.1.17.17,0,0,0,0,.12h.12a.22.22,0,0,1,.15.08.34.34,0,0,0,.24.07,2,2,0,0,0,.53.22,1,1,0,0,1,.44.24c2.17.88,4.31,1.73,6.43,2.52,1.85.7,3.7,1.43,5.55,2.23a.38.38,0,0,1,.17.08,3.91,3.91,0,0,0,.44.26,3.68,3.68,0,0,0,.44.23c.15.07.42.19.78.33a2,2,0,0,0,.48.18,1.31,1.31,0,0,1,.28.09,1.33,1.33,0,0,1,.28.1,3.33,3.33,0,0,1,.54.07.21.21,0,0,0,.17.12,1.7,1.7,0,0,1,.32.1l.43.15.23.07h0l.08.08-.07.09v.07c.22.1.56.23,1,.4s1,.36,1.58.56c.74.26,1.41.5,2,.75l1.83.75a36.25,36.25,0,0,0,3.74,1.47c-2.16-.57-3.63-.66-4.45-.22a22.68,22.68,0,0,0,3.82,1.56,20.12,20.12,0,0,1,3.17,1.26l1.46.44h0s-.39-.1-1.09-.31a3.12,3.12,0,0,0-.39-.15c-1.37-.44-3.09-1-5.14-1.7s-3.7-1.25-4.9-1.69a6.28,6.28,0,0,0-2.45-.5c-.5,0-.59.38-.25.94a42.53,42.53,0,0,0,4.6,1.86,25.32,25.32,0,0,1,3.17,1.11.08.08,0,0,0,.05.07h0a2.4,2.4,0,0,1,.34.55q5.85,2.16,11.7,4.07c3.43,1.12,6.86,2.07,10.25,2.82a58.07,58.07,0,0,1,2.43-8.4c.05-.21.08-.41.12-.61q1.29-3.44,3.63-10.63l-2.34-14.88q3.84-.76,7.75-1.68a4.71,4.71,0,0,0,.27-.71,3,3,0,0,0,.38-.24v-.15a.09.09,0,0,0-.08-.08h0v-.11a.48.48,0,0,1,.07-.2c0-.05,0-.08.07-.08H331V410c.46-1.21.92-2.38,1.37-3.53.56-2.07,1.14-4.14,1.77-6.16.32-.58.66-1.15,1-1.73.08-.31.17-.63.25-.93a2.06,2.06,0,0,1,.21-.48,3.61,3.61,0,0,1,.17-.46.83.83,0,0,0,0-.54c.17-.58.38-1.19.6-1.8.4-1.2.76-2.37,1.07-3.51l-.7.15a24.75,24.75,0,0,1-2.68.75c-1,.29-2,.56-3.14.83s-2.15.59-3.22.92c-.61.11-1.21.2-1.77.27a4.13,4.13,0,0,1-.78.08.75.75,0,0,1-.3.09h-.46a.21.21,0,0,0,.15-.07l.22-.09.46-.23.83-.41c.1-.05.2-.12.31-.17.45-.2.9-.42,1.35-.65a3.29,3.29,0,0,0-.61.26c-.45.2-.9.42-1.35.64a5.13,5.13,0,0,0-1,.41,7.33,7.33,0,0,0-.91.39h-1.09a6,6,0,0,0,.68-.32l1.73-.95.46-.17c.49-.26,1-.5,1.44-.73a4.6,4.6,0,0,0-.61.25c-.46.22-.93.43-1.44.65l-.77.32c-.25.1-.47.22-.68.32a11.62,11.62,0,0,0-1.2.65h-.09c.36-.23.72-.43,1.06-.65a1.14,1.14,0,0,0,.23-.15l.38-.17a.86.86,0,0,0,.22-.15.53.53,0,0,1,.3-.09l.09-.08c.41-.16.83-.34,1.29-.56a.21.21,0,0,1,.15-.09c.36-.15.73-.32,1.14-.47l2.66-1.14c.9-.37,1.71-.73,2.43-1.05a26.26,26.26,0,0,1-2.75.81,10.26,10.26,0,0,1-1.55.27c-.67,0-.71-.27-.11-.85,1.29-1.15,4.31-2.88,9-5.22l-2.66,1.15-1.19.41c-.32.1-.49.13-.49.08,0-.32.45-.66,1.25-1s1.75-.75,2.82-1.14a18.05,18.05,0,0,0,1.76-.57c.51-.16,1-.31,1.38-.41a1.64,1.64,0,0,0,.52-.24s.09-.12.07-.17l.15-.3c-1,.32-2.12.76-3.42,1.3s-2.55,1-3.67,1.38a6.31,6.31,0,0,1-2.29.59c1.1-.54,2.24-1.1,3.39-1.7a49.44,49.44,0,0,1,5.93-2.58c.3-.32.32-.45.06-.44a6.55,6.55,0,0,0-1.3.41c-.61.25-1.28.54-2,.87a4.51,4.51,0,0,0-1,.39l-2.46,1.1c-.68.31-1,.36-1,.2,1.33-.54,2.46-1,3.46-1.46L339.6,381l1.13-.48a9.15,9.15,0,0,1-1.88.34c-.39,0-.64-.06-.75-.22a1.58,1.58,0,0,1-.25-.46.89.89,0,0,0-.14-.35.54.54,0,0,0-.44-.22,5.59,5.59,0,0,0-1,.05,17.85,17.85,0,0,0-2.31.2,17.79,17.79,0,0,1-3.5.05c-.52-.13-.47-.51.17-1.12a25.19,25.19,0,0,1,4.52-2.83,9.85,9.85,0,0,1,1.73-1c.35-.15.76-.34,1.2-.56a1.86,1.86,0,0,1,.54-.24.25.25,0,0,1,.16-.08.5.5,0,0,1,.22-.16,2.47,2.47,0,0,0,.46-.23.6.6,0,0,1,.37-.09l1.2-.64c.51-.17,1-.36,1.53-.58a1,1,0,0,1,.24-.09c.76-.32,1.54-.61,2.36-.88a.27.27,0,0,1,.06-.17.21.21,0,0,1,.07-.15H345a.48.48,0,0,1-.31.08c-.42.07-.85.16-1.31.26s-1.15.25-1.76.42h-.32a3.27,3.27,0,0,1-.53.17l-.46.17a1.71,1.71,0,0,0-.45.09l.81-.5.92-.56,1.73-.95,1.81-1a6.7,6.7,0,0,1,1.14-.56.67.67,0,0,0,.07-.24,2.88,2.88,0,0,1,.13-.31,7.67,7.67,0,0,1,1.84-2.13c.44-.43.89-.9,1.39-1.43a9.24,9.24,0,0,1,1.44-.8,1.52,1.52,0,0,0-.2.55,3.35,3.35,0,0,0-.34.86,5.25,5.25,0,0,1,.76-1.49,3.22,3.22,0,0,1,.61-.24c-.14.31-.27.63-.41.93s-.27.82-.4,1.18c.13-.31.32-.7.56-1.18l.49-1h.07a14.41,14.41,0,0,1-1.11,2.51,3.5,3.5,0,0,1-.29.54.21.21,0,0,0,.16-.08c.4-.16.83-.34,1.29-.56.25-.12.51-.22.76-.33s.68-.32,1-.49c.67-.22,1.34-.46,2.06-.73a6.57,6.57,0,0,0,1.07-.41,9.79,9.79,0,0,0,1.15-.4,3,3,0,0,0,.76-.26l1.6-.49.3-.08.31-.16a.88.88,0,0,0,.39-.08.85.85,0,0,0,.31-.09c.45-.1.89-.22,1.3-.34,1.63-.39,3.33-.78,5.06-1.17s3.65-.62,5.55-.86,3.86-.51,5.87-.65a52.4,52.4,0,0,1,6.14,0l.78.07h.78a.67.67,0,0,0,.31.07,6.73,6.73,0,0,1,1,.07h.31a2.7,2.7,0,0,0,.41.06h.37l.47.06c.58.06,1.18.12,1.8.21l.63.15a.88.88,0,0,1,.32.07h.16c.25.05.49.1.71.13l.54.16.63.13a6.16,6.16,0,0,1,1.12.38h.15a18.76,18.76,0,0,1,2.29.9,3.64,3.64,0,0,1,.89.37,1.14,1.14,0,0,0,.23.15.24.24,0,0,1,.16.07c.32.15.61.31.88.46a.28.28,0,0,1,.17.07,13.15,13.15,0,0,1,1.68,1.05,6,6,0,0,1,.88.61l.73.52c0,.06,0,.09.08.09l.58.53.49.45a.09.09,0,0,0,.09.09c.2.2.42.42.64.68l.51.61.15.15c-.08-.32-.15-.63-.22-.95a1.65,1.65,0,0,1,.11-.85,10.16,10.16,0,0,1,.52-1.17c.24-.49.44-.95.6-1.37A10.72,10.72,0,0,1,409,362a4.9,4.9,0,0,1,.26,1,7.11,7.11,0,0,1,0-1.13l.53-.43c.12.39.24.78.34,1.17a1,1,0,0,0,.08.29,2.44,2.44,0,0,1,0-.76,1,1,0,0,0-.08-.39v-.09a1.18,1.18,0,0,0-.08-.49h.1a.86.86,0,0,1,.09.39c.05.13.11.25.18.39a2.78,2.78,0,0,0,.05.76V363c.05.37.08.73.13,1.05.43-1.22,1-1.73,1.83-1.53a4.52,4.52,0,0,1,2.12,2.09c-.06-.13-.11-.27-.18-.44a1.12,1.12,0,0,1-.07-.48c0-.16.05-.23.12-.23.47-.07.73,0,.78.35a2.91,2.91,0,0,1,0,1.06v.51a.36.36,0,0,0,.08.33.42.42,0,0,0,.42-.42h0a3.64,3.64,0,0,0-.05-.87,2,2,0,0,1-.15-.91.88.88,0,0,1,.36-.68,4.52,4.52,0,0,0,.56.92,4.83,4.83,0,0,1,.32.59,3.31,3.31,0,0,1,.2.68c.41,0,.6,0,.58-.27a2,2,0,0,0-.31-.83,1.8,1.8,0,0,1-.22-.6c0-.18,0-.32.17-.37.12.34.21.59.27.8a5,5,0,0,1,.16.67,2,2,0,0,1,.18.48,1.33,1.33,0,0,1,.65-.73,5.18,5.18,0,0,1,.93-.34,2.12,2.12,0,0,0,.73-.22,1.58,1.58,0,0,0,.54-.42,9.59,9.59,0,0,0,.75-.68,4.76,4.76,0,0,1,1.92-1.39,2.45,2.45,0,0,1,2.29.73,1.74,1.74,0,0,1,.81.88,5.73,5.73,0,0,1,.48,1.52,16.24,16.24,0,0,0,1-1.71,6.2,6.2,0,0,1,1,.58c.92.52,1.82,1.08,2.66,1.66a10.36,10.36,0,0,1,1.33,1.55q.71.89,1.32,1.83a36.72,36.72,0,0,1,1.92,4c0,.07,0,.1.08.1s.11.24.09.29c.3.73.69,1.64,1.17,2.76a.25.25,0,0,1,.08.21c.24.52.53,1.08.84,1.68s.62,1.27,1,2a1.75,1.75,0,0,1,.18.29c.31.61.65,1.24,1,1.9a14.25,14.25,0,0,1,.85,1.41,5.62,5.62,0,0,1,.46.79,1.26,1.26,0,0,1,.27.51c.38.55.75,1.11,1.12,1.72a.25.25,0,0,1,.1.18,17.12,17.12,0,0,0,1.2,1.86Zm-52-39.52-1.57-.25L391,348a2.13,2.13,0,0,1,1.39.34Zm-.14-.13.14-.27v.27Zm2.84-2.62v-.5a1.56,1.56,0,0,1,1-1.43Zm2.69-3.37.13-.13.26.13-.13.25Zm114.9-130.85c-.49.59-.86.95-1.15.92-.53,0-.94-1.39-1.42-1.93-1.19-.78-2.66-1.06-4.26-2.11a.61.61,0,0,0-.44.1c-.33.21-.59.71-.91.82a34.73,34.73,0,0,0-6.63-1.93,3.17,3.17,0,0,0-2.83.89c-.71.73-1.27,1.08-1.9,1l-.64-.2c-1.47-.15-2.69,1.57-4.49,1.4a3.08,3.08,0,0,1-1.55-.52c-.51,0-1.12.65-1.74.61a.58.58,0,0,1-.58-.6.34.34,0,0,1,0-.1l-.13.1.1.27c-.33,0-.89.31-1.32.28-.49-.32-.57-.58-.79-.6s-.63,1.11-1,1.34-.61.86-1.24.79c-.23,0-.28-.41-.79-.73-.41,0-.69.58-.82,1a1.08,1.08,0,0,1-.27-.66c-.13-.79-.3-1.2-.62-1.24-.53,0-1,1.22-1.49,2.21-.2-.29-.51-1.35-.82-1.38-.65.06-1,.94-1.67.87-.23,0-.41-.16-.69-.69-.31,0-.55.2-.94.94a.54.54,0,0,1-.45.33,2.51,2.51,0,0,0-1-.48,2.81,2.81,0,0,0-1.74.61c-1.6,1-4.34.91-6.78,2a16,16,0,0,1-6.5,1.37,45.75,45.75,0,0,1-2.52,4.2c-1.91,3.5-3.71,6.37-5.37,8.83l-3.85,6a15,15,0,0,0-1.91,4.67c-.38,2.07-1.65,3.51-2.16,5.46-.63,2.19-1.65,3.51-4.19,11.78-2.41,9-6,15.32-8.41,22.73a247.25,247.25,0,0,1-11.84,28.16c-1.13,1.95-2.06,2.87-2,5.33v.24A2.55,2.55,0,0,1,411,315.8c-.4.13-.52.24-.52.52s.27.51.8,1c-.53.14-.53.39-.78.9.64,1,1.29,1.42,1.29,1.95a1.31,1.31,0,0,1-.5,1c-2.55,4.15-3.84,5.72-6.53,10.12-.13.13-.13.13-.13.4a5.17,5.17,0,0,1,.64,1.94c0,1-1.53,1.44-1.91,2.48a1.72,1.72,0,0,1-1.81,1.3H401a11.16,11.16,0,0,1,.26,1.28.8.8,0,0,1-.49.78,11.37,11.37,0,0,0-2.08-1l1.28.64-.89,1.81a16.2,16.2,0,0,0-1.94-.49c-.25.91-2.57.79-3,2.47s-1.8,1.44-2.69,2.61l-.51.66-.79-1.44q-7.12,7.25-19.34,11c-.91-1.17-1.95-2-1.95-2.84,0-.11.12-.26.36-.39,2.73-1.06,2.58-3.37,4.75-5.48l.15-.36c-.39-.79-.66-1.06-.66-1.45l.25-.51c3.08-4.29,4.62-7.14,4.6-8.71a10.68,10.68,0,0,0-.53-2.57c0-1.17.78-1.57.89-2.33.27-1.43.12-3.25.37-4a3,3,0,0,1,1.28-1.68c.63-.4.13-2.43,1.34-2.85h-.07c.25-.64,0-1.7.89-1.82a.34.34,0,0,0,.38-.29.17.17,0,0,0,0-.1c0-.53-.64-1-.64-1.42a6.32,6.32,0,0,1-.28-1.29c0-.39.26-.64.77-.79.25,0,.53-.13.53-.24l-.4-1c0-.13,0-.13.12-.13l1.17.13c.64,0,.92-.15.89-.55,0-.64-.51-1-1.28-2.06.64-.13,1.66,0,1.81-.39l-.15-1.42c0-.65.38-.91,1.14-1l.15-.15c-.15-.64-.55-1-.55-1.66,0-.15,0-.27.13-.27a2,2,0,0,0,1.18-1.17l.11-1.68c0-1.93,1.65-4.82,2.28-7.78a22.2,22.2,0,0,1,3.18-7.9,2.44,2.44,0,0,0,.77-1.85,4.42,4.42,0,0,0-.92-2H394c.25,0,.51,0,.64-.15.89-.64,1.29-1.3,1.27-1.82.37-2,1.67-3.24,2.18-4.68l.25-.64-.4-1.93a1.11,1.11,0,0,1,.38-.79A6.54,6.54,0,0,0,400,273.1a27.69,27.69,0,0,0,2.16-5.33c3.56-9.74,8-18.83,11.74-27.78,3.26-7.6,5.39-12.47,6.56-14.74l-7.06,2.26a34.85,34.85,0,0,0-3.84,1.33l-24.21,9.55a1.3,1.3,0,0,0-.59.73,13.79,13.79,0,0,1,.21,2.22c0,.27-.14.38-.36.37l-.29-.17-.73-2.41c-6.18,2.54-10.49,5.11-12.58,4.92l-.38-.05c-2.39-.4-3.64-2.28-5.71-3l-1.76-5.89a28.93,28.93,0,0,1,.54-3.46.41.41,0,0,1,.42-.36h.05c.31,0,.42-.08.46-.47.16-1.69-.7-3.71-.56-5.13a9.48,9.48,0,0,1,4.63-7.8,21,21,0,0,1,4.81-2.11,70.92,70.92,0,0,1,9.44-3l7.33-2.16a11.17,11.17,0,0,0,4.44-1.93c1.7-1.14,3.3-1.12,5-2.28,1.69-1,3.18-1,8-3.66,2.92-1.66,4.69-2.14,8.87-3.84,4.34-2.06,8.89-2.94,14.07-4.78,11.34-4,16.24-5.38,29.83-6.43a7.07,7.07,0,0,0,4.14-1,1.69,1.69,0,0,1,1.09-.3c.85.1,1.5,1.06,2.12,1.12.22,0,.46-.34.66-1.22l.5.3c.11-.13.52,0,.79-.45.25-1.41.82-2,1.68-1.91l11.23,1.3c.53,0,1.86-1.76,2.51-1.71s1,.49,1.61.81h1.06c.64.07,1.13.48,1.37,1.44.67-.46.92-.83,1.43-.78.33,0,.53.3.45,1.07l1.89.19a8.32,8.32,0,0,0,.36,1.84h.2c.73.07,1.34,1.43,2.26,1.9l1.39-.12c.62.18,1.56,1.32,2.73,1.55l.8.33-1.16,1.2c6.4,2.94,11.07,8.58,14.18,16.81Zm-18-24.59h.21l-.05.4h-.1c-.13,0-.11-.12-.08-.4Zm2,1.37,2.1.18a1.39,1.39,0,0,1-1,.3,1.66,1.66,0,0,1-1.13-.48Zm5.92,3.54-.21-.14-.07-1.31h-.43l.43-.12v.15a2,2,0,0,1,.25,1.42ZM517,73c-.29,2.27-.65,4.55-1.07,6.8a90.65,90.65,0,0,1-8.67,18.69c-.19.32-.36.66-.54,1-2,3.26-4.92,8.38-8.73,15.41s-7.55,14.27-11.31,21.71v.11a56.13,56.13,0,0,1-3.11,5.7,1.06,1.06,0,0,0-.71.34.28.28,0,0,0-.14.18c0,.09,0,.12.11.12a.42.42,0,0,0,.05.22.2.2,0,0,1-.09.21c0,.13-.08.2-.24.17h-.17a.38.38,0,0,0-.17.08c-1.61,2.89-3.25,5.62-4.92,8.22a.2.2,0,0,1-.06.15c-.05,0-.09,0-.12,0s-.05,0-.05-.1H477a.39.39,0,0,0-.23.07c-.38.8-.83,1.66-1.36,2.56-.63,1.06-1.21,2.11-1.75,3.16-.46.78-.93,1.56-1.46,2.34v.21c.08,0,.11.05.1.11l-.17.14c-.05,0-.07,0-.05-.07s-.12,0-.12,0h-.12a.28.28,0,0,1-.14.18.61.61,0,0,1-.08.26.72.72,0,0,0-.07.25,18.36,18.36,0,0,0-1.75,3,19.38,19.38,0,0,1-1.37,2.78h-.1l-.26.16c-.08.07-.13.14-.18.19l-.21.41a.59.59,0,0,0-.13.29v.52c0,.13-.12,0-.12.09v.22a.3.3,0,0,0-.14.19v.2l-.1-.12h-.22a1.07,1.07,0,0,0-.28.44c-.08.23-.18.48-.28.75s-.38.76-.55,1.09a5.47,5.47,0,0,1-.64.86,7.08,7.08,0,0,0-1.07,1.77,2.59,2.59,0,0,0-.65-2.82A3.29,3.29,0,0,0,462.1,173a3.43,3.43,0,0,1-.91,1.56c-.19.39-.31.63-.36.7s0-.16.12-.63a.34.34,0,0,0,.24-.07c.27-.66.61-1.46,1-2.39q.71-1.71,1.14-2.7c.49-1.2.05-1.85-1.29-1.95a5.14,5.14,0,0,0-1.21,2.16,6.93,6.93,0,0,1-.83,1.57h-.1a1.42,1.42,0,0,1-.58,0c-.52.92-1,1.82-1.47,2.66q-2.43,4.34-4.72,8.56a9.14,9.14,0,0,1-2,2.07,14.28,14.28,0,0,0-1.73,1.66,15.49,15.49,0,0,1-1.54.86l.13-.3.16-.39a.87.87,0,0,1,.06-.32c-.22.39-.45.79-.71,1.18h-.12l-.12.08a.33.33,0,0,0-.23.09v-.22a.74.74,0,0,1,0-.21v-.1c.08-.07.13-.12.13-.2a.61.61,0,0,1,.14-.29,7.28,7.28,0,0,1,.44-1.21c-.08.21-.19.39-.27.6a1.2,1.2,0,0,1-.26.29.34.34,0,0,1-.13.28,1.16,1.16,0,0,1-.15.51.09.09,0,0,1-.12.09c-.06,0,0,.15,0,.22v.1a.26.26,0,0,0-.13.19V187a1.8,1.8,0,0,0,.17-.51,2.34,2.34,0,0,1,.27-.49v0c.1-.21.19-.41.29-.6l.51-.78a10,10,0,0,0,.7-1.39c-1.43,1.58-2.21,1.94-2.36,1.07a11.22,11.22,0,0,1,.88-4.82.25.25,0,0,0-.12.19c-.1.2-.22.44-.36.74a4,4,0,0,1-.4.73c-.12.21-.22.26-.29.19a.6.6,0,0,1-.22-.81,3.61,3.61,0,0,1,.73-1.12c.17-.27.34-.53.52-.78a4.3,4.3,0,0,0,.9-1.36c-.22-.1-.46,0-.71.39a8.14,8.14,0,0,0-.8,1.41c-.08,0-.12,0-.12.1a11.3,11.3,0,0,1-.86,1.41c-.31.42-.56.64-.8.69.2-.54.39-1.07.6-1.61a8.16,8.16,0,0,1,1.13-2.6c-.13-.22-.25-.3-.37-.25a1,1,0,0,0-.37.48,5.92,5.92,0,0,0-.38.9l-.25.39a4.34,4.34,0,0,1-.44,1.15c-.19.3-.34.41-.48.3.36-.64.65-1.22.88-1.71s.5-1.09.78-1.75a2.8,2.8,0,0,1-.73.55.83.83,0,0,1-.62.06,1.73,1.73,0,0,1-.5-.22c-.22-.08-.4-.17-.59-.22a.92.92,0,0,0-.75.17c-.47.22-.91.44-1.3.66a5.27,5.27,0,0,1-1.87.72c-.39,0-.63-.21-.73-.72a4.86,4.86,0,0,1,.12-2.51,5.29,5.29,0,0,1,.59-2.24c.41-.93.9-1.91,1.45-3-.73.61-1.55,1.31-2.45,2.11v-.21c.36-2.27.71-4.54,1.07-6.8a80.89,80.89,0,0,1,7-15.95c.08-.14.17-.25.25-.39a1.16,1.16,0,0,1,.15-.51q2.26-3.81,6.37-11.6t8.58-16.6h-.1c-.15-.1-.29-.19-.44-.27a18.7,18.7,0,0,1-3.21-3.14,21.16,21.16,0,0,1-1.53-2c-.39-.62-.78-1.26-1.17-1.94l-.3-.35c-1.1-2.09-2.95-5.28-5.58-9.54q-1.86-3.28-3.72-6.45a19.35,19.35,0,0,1-1.36-2.59.35.35,0,0,0,.26-.29c0-.07,0-.1-.05-.1h-.17a.3.3,0,0,1-.21-.12c0-.07.05-.1.12-.1l.12-.08c-.37-.89-.71-1.73-1-2.55-.86-1.31-1.68-2.66-2.44-4.09a4.06,4.06,0,0,1-.12-1.39,2.27,2.27,0,0,1-.39-.58c-.07-.13-.12-.29-.19-.44a.5.5,0,0,0-.08-.27.39.39,0,0,0-.32-.2A10.21,10.21,0,0,1,439.2,82c-.12-.29-.24-.58-.38-.85a72.21,72.21,0,0,1-8.16,2.19.38.38,0,0,1-.27.1,1.15,1.15,0,0,0-.37.12q-3.67.73-11,2.66l-6.82,1.92a88.63,88.63,0,0,1-4.07,17,3.68,3.68,0,0,1-.15.47,4.34,4.34,0,0,1-.14.48q-1.65,4.64-4.65,14.41t-5.85,20.15v.09a46.11,46.11,0,0,1-1.69,5.39.67.67,0,0,0-.53.31.81.81,0,0,0,0,.22v.15a.26.26,0,0,1,.12.17v.19l-.13.15a.28.28,0,0,1-.14.05h-.18q-1.34,4.08-2.7,7.77c0,.07-.09.1-.07.14m0,.05a.33.33,0,0,0-.14,0c0-.07,0-.11-.05-.11s0,0,0,.06,0,0-.08,0c-.19.69-.44,1.47-.73,2.36s-.68,2-1,3a17,17,0,0,1-.75,2.18V163c.07.05.07.09,0,.09a.09.09,0,0,1-.08.1H389l-.08.1a.26.26,0,0,1-.07.19.54.54,0,0,1,0,.18.61.61,0,0,0,0,.19,21,21,0,0,0-.86,2.93c-.26.82-.51,1.67-.82,2.55-.05.07-.12.14-.17.2a.47.47,0,0,0-.12.19,2.29,2.29,0,0,0-.12.37c-.05.14-.08.22-.1.29a.31.31,0,0,0,0,.19V171a.88.88,0,0,0-.07.23v.14h-.17a.08.08,0,0,0-.1-.09,4.42,4.42,0,0,0-.15.48c-.05.18-.08.4-.14.64a6.45,6.45,0,0,1-.28.95c-.11.32-.21.63-.29,1a5.15,5.15,0,0,0-.61,1.61,2.65,2.65,0,0,0-1-2.37,3.82,3.82,0,0,0-.69,1.71,3.55,3.55,0,0,1-.53,1.51c-.08.27-.12.48-.15.58a4,4,0,0,1,.07-.48l.08-.1c.14-.63.29-1.34.46-2.17.22-1,.41-1.9.54-2.53.15-1.07-.29-1.54-1.34-1.42a4.88,4.88,0,0,0-.66,2,7.92,7.92,0,0,1-.44,1.51H381a.93.93,0,0,1-.46.12c-.23.82-.49,1.65-.73,2.46-.88,2.67-1.71,5.33-2.49,8a9.45,9.45,0,0,1-1.31,2,18.72,18.72,0,0,0-1.17,1.73c-.32.31-.65.6-1,.88l.07-.27.06-.38c0-.2.09-.4.12-.66-.13.56-.27,1.07-.42,1.51h-.19c0,.07,0,.1-.08.1s-.12,0-.19.11v-.38a.09.09,0,0,0,.09-.09h0v-.08a.72.72,0,0,1,.07-.38,6.78,6.78,0,0,1,.19-1,3.71,3.71,0,0,0-.16.47,5.07,5.07,0,0,1-.13.56,4.34,4.34,0,0,1-.14.48v.08a.31.31,0,0,0-.07.21v.27H373a.94.94,0,0,1,.07-.37.9.9,0,0,1,.05-.46,1,1,0,0,1,.05-.48v-.08c.05-.14.1-.29.15-.48l.31-.76c.13-.44.27-.85.35-1.22-.86,1.46-1.46,1.83-1.76,1.1a8.76,8.76,0,0,1,0-4.09l-.07.09a4.13,4.13,0,0,1-.17.71,2.56,2.56,0,0,1-.22.66c-.08.15-.15.24-.22.24s-.25-.34-.19-.68a4.16,4.16,0,0,1,.33-1.09,4.23,4.23,0,0,0,.4-.76,3.6,3.6,0,0,0,.44-1.24c-.18,0-.35.1-.5.44a8.62,8.62,0,0,0-.46,1.29v.09a13.12,13.12,0,0,1-.49,1.37,1.36,1.36,0,0,1-.54.73c.07-.51.15-1,.24-1.51a6.72,6.72,0,0,1,.54-2.34c-.14-.19-.26-.24-.34-.17a.89.89,0,0,0-.24.42,4.38,4.38,0,0,0-.17.8,2.85,2.85,0,0,0-.13.48,3.3,3.3,0,0,1-.21.93c-.1.25-.22.39-.34.39.19-.63.34-1.15.46-1.6s.26-1,.39-1.61a2.66,2.66,0,0,1-.51.6,1.11,1.11,0,0,1-.51.06,1.16,1.16,0,0,1-.44-.12.87.87,0,0,0-.45-.06.72.72,0,0,0-.55.3,5,5,0,0,0-1,.7,4.19,4.19,0,0,1-1.41.9c-.31.08-.55-.07-.7-.43a6.89,6.89,0,0,1-.19-2.22,5.18,5.18,0,0,1,.12-2c.17-.85.41-1.75.7-2.7a22.2,22.2,0,0,0-1.6,2.12v-.08c-.11-2-.15-4.06-.13-6a1,1,0,0,1,0-.24,17.35,17.35,0,0,1-4.12.52c-1.8,0-3.48,0-5-.11h-.27a11,11,0,0,0,1.51.22c1.32.25,2.2.42,2.65.53.64.28.57.54-.23.76-.42.08-1,.17-1.64.25a23.21,23.21,0,0,1-2.5.22,43.68,43.68,0,0,1-6.26-.4,5.8,5.8,0,0,0,.92.2,8.7,8.7,0,0,1,1.24.22,2.29,2.29,0,0,1,.37,0c.56.09,1.19.22,1.9.38-.24.25-.81.34-1.76.27a20.4,20.4,0,0,1-3-.59c-1-.21-2-.45-3-.7-1.2-.32-2.1-.53-2.66-.63-.12.14.32.34,1.31.65a32.67,32.67,0,0,0,3.66.79l2.65.43c.88.2,1.68.37,2.37.49a4,4,0,0,1,1.43.44l-2.71-.24a4.85,4.85,0,0,0-.85-.05q-.94-.13-1.89-.18a41.65,41.65,0,0,1-5.21-1c-.3.08-.42.15-.35.2a1.83,1.83,0,0,0,.59.26,25.65,25.65,0,0,0,3,.59c.83.15,1.61.27,2.36.36s1.48.17,2,.27.73.19.67.25a16.7,16.7,0,0,1-2-.18.87.87,0,0,0-.39-.07l-.75-.15a12.11,12.11,0,0,1-1.32-.22c-1.28-.19-2.72-.46-4.36-.82.76.27,1.34.49,1.73.66a14.12,14.12,0,0,0,1.59.21c-.49,0-1-.07-1.49-.12a2.51,2.51,0,0,1,.44.35.37.37,0,0,1,.12.33,3,3,0,0,1-.1.32.48.48,0,0,0,0,.37.54.54,0,0,0,.3.36,5.6,5.6,0,0,0,.84.44c1,.44,2,.88,3,1.34a13,13,0,0,1,2.63,1.26c.46.35.2.59-.78.69a11.81,11.81,0,0,1-2.14.1c-1,0-2.22-.06-3.65-.18a32.59,32.59,0,0,1-5.38-.77c-2.34-.46-4.85-1.07-7.53-1.86a64.55,64.55,0,0,0,6.38,2.66q-8.19-1-15.88-2.58-8.65-2-19-5.41c-6.83-2.28-13.4-4.58-19.69-7l-2-.64c-1.86-.72-4.1-1.53-6.73-2.46-2.31-.89-4.91-1.78-7.79-2.7v.1c-.16.44-.31.85-.46,1.22-.05.07-.09.12-.09.15v.06s-.05,0-.05-.11h-.1a.19.19,0,0,0-.17.1c-.21.68-.44,1.48-.75,2.36s-.66,2-.95,2.94A16.84,16.84,0,0,1,264,169v.19c0,.05.07,0,0,.1s0,.09-.08.09h-.14v.09a.25.25,0,0,1-.09.2.31.31,0,0,1,0,.19.8.8,0,0,1-.13.19c-.29,1-.55,1.88-.78,2.83a19.94,19.94,0,0,1-.82,2.54v.11l-.22.13a1,1,0,0,0-.09.21.6.6,0,0,1-.2.32.71.71,0,0,1,0,.29.28.28,0,0,0,0,.18v.27a.34.34,0,0,1-.07.29.54.54,0,0,1-.07.29h.1c-.06.07-.08.07-.1.06h-.19a1.63,1.63,0,0,0-.18.43,2.54,2.54,0,0,0-.17.71,3,3,0,0,1-.21.93,3.41,3.41,0,0,1-.39.87,15.56,15.56,0,0,0-.61,1.61,2.29,2.29,0,0,0-.95-2.28,3.14,3.14,0,0,0-.69,1.62,3.26,3.26,0,0,1-.53,1.51c-.08.37-.15.59-.17.66s0-.1,0-.48l.17-.18c.14-.56.29-1.29.48-2.16s.4-1.83.52-2.46c.16-1.12-.29-1.63-1.34-1.51a5,5,0,0,0-.66,2,6.09,6.09,0,0,1-.44,1.51h-.09a1,1,0,0,1-.45.12c-.24.81-.51,1.64-.82,2.46-.83,2.71-1.66,5.37-2.49,8a5.29,5.29,0,0,1-1.22,2c-.39.58-.78,1.15-1.16,1.73a9.79,9.79,0,0,1-1.05.88v-.64a4.23,4.23,0,0,1-.28.85h-.19v.09h-.09a.22.22,0,0,1-.18.1l.08-.19a.54.54,0,0,1,0-.18v-.09c0-.06,0-.1.08-.1a2.29,2.29,0,0,0,0-.37,3.18,3.18,0,0,1,.14-.55.22.22,0,0,0-.07.17c0,.13-.1.26-.16.38a1.48,1.48,0,0,0-.05.47c0,.07,0,.1-.08.1a.61.61,0,0,0,0,.19v.09l-.09.08v-.27a1.19,1.19,0,0,0,.06-.46,2.49,2.49,0,0,1,.15-.47v-.09a2.49,2.49,0,0,1,.15-.47,4.22,4.22,0,0,0,.22-.77c.14-.44.26-.85.36-1.22-.86,1.53-1.42,1.94-1.68,1.21a9.75,9.75,0,0,1,0-4.3c0,.07-.09.14-.07.19-.05.2-.12.42-.19.71a2.23,2.23,0,0,1-.22.66c-.08.16-.15.24-.2.24a.77.77,0,0,1-.2-.68,4.62,4.62,0,0,1,.32-1.08,3.35,3.35,0,0,1,.32-.66,3.87,3.87,0,0,0,.54-1.35c-.2,0-.37.11-.52.45a9.9,9.9,0,0,0-.46,1.29.28.28,0,0,1-.07.18c-.15.44-.3.87-.46,1.27s-.34.67-.59.73a5.74,5.74,0,0,0,.25-1.49,11.24,11.24,0,0,1,.55-2.36c-.07-.18-.16-.23-.24-.17a1.06,1.06,0,0,0-.26.43c-.06.22-.15.49-.25.79a1.57,1.57,0,0,1,0,.48c-.1.37-.17.7-.26,1s-.17.37-.28.37c.13-.62.25-1.15.37-1.59s.27-1,.47-1.61a2.34,2.34,0,0,1-.5.59,2.23,2.23,0,0,1-.51.12.8.8,0,0,1-.43-.09,1.2,1.2,0,0,0-.52-.15,1,1,0,0,0-.58.31,8.35,8.35,0,0,0-.88.69,4.1,4.1,0,0,1-1.41.9c-.31.09-.53-.07-.7-.42a6.7,6.7,0,0,1-.18-2.23,4.82,4.82,0,0,1,.12-2,25.44,25.44,0,0,1,.69-2.7A20.53,20.53,0,0,0,239,184v-.09c-.11-2-.15-4-.14-6A68.93,68.93,0,0,1,242,163.22c.05-.25.09-.49.14-.74.93-2.79,2.26-7.06,3.94-12.85l-3.36-17.69c3.05-.72,6.12-1.48,9.21-2.33.1-.24.2-.53.31-.85l.44-.29a.54.54,0,0,0,0-.18c0-.07,0-.1-.1-.1v-.14a.59.59,0,0,1,.07-.24c.07-.14,0-.08.08-.08a.33.33,0,0,1,.14,0s0,0,0-.08c.51-1.46,1-2.89,1.51-4.28.59-2.49,1.22-5,1.88-7.43.38-.7.75-1.41,1.14-2.11.09-.37.17-.74.27-1.13a1.86,1.86,0,0,1,.24-.56,3.86,3.86,0,0,1,.17-.58.88.88,0,0,0,0-.64c.19-.7.41-1.41.66-2.18.43-1.44.82-2.86,1.12-4.24-.24.07-.51.15-.81.22a31.7,31.7,0,0,1-3.18,1c-1.15.36-2.39.73-3.73,1.11s-2.54.78-3.82,1.2c-.73.17-1.42.29-2.1.39a4.1,4.1,0,0,1-.92.14,1.23,1.23,0,0,1-.37.12h-.56a.26.26,0,0,0,.19-.1.63.63,0,0,0,.27-.1l.52-.31,1-.51.35-.2c.55-.27,1.07-.56,1.62-.83a3.94,3.94,0,0,0-.73.32l-1.6.82c-.76.31-1.52.64-2.26,1h-1.28c.28-.14.55-.27.79-.41.66-.41,1.34-.81,2.06-1.22l.52-.2c.54-.33,1.1-.61,1.66-.9a2.67,2.67,0,0,0-.67.29c-.55.27-1.11.56-1.7.83l-.9.4c-.31.16-.58.29-.81.43a12.26,12.26,0,0,0-1.41.81h-.1l1.23-.81a.83.83,0,0,0,.26-.19c.12-.07.27-.13.46-.22a1.14,1.14,0,0,0,.25-.18.81.81,0,0,1,.37-.12l.09-.11c.47-.2,1-.44,1.53-.71a.21.21,0,0,1,.17-.1c.42-.2.86-.42,1.34-.63,1.08-.49,2.12-1,3.14-1.46s2-.93,2.86-1.34c-1.32.49-2.41.87-3.26,1.09a10.42,10.42,0,0,1-1.83.37c-.79,0-.86-.3-.18-1q2.31-2.13,10.75-6.65l-3.25,1.55c-.55.2-1,.39-1.41.52s-.58.19-.6.12c0-.37.53-.8,1.48-1.27s2.07-1,3.33-1.48a21.39,21.39,0,0,0,2.08-.74c.6-.22,1.16-.39,1.63-.55a1.83,1.83,0,0,0,.63-.3.41.41,0,0,0,.08-.19c0-.13.11-.25.16-.39-1.16.42-2.5,1-4.06,1.7s-3,1.29-4.33,1.78a7.08,7.08,0,0,1-2.73.78c1.33-.67,2.67-1.38,4-2.14a58.89,58.89,0,0,1,7-3.32q.51-.59.06-.51a6.94,6.94,0,0,0-1.55.54c-.71.31-1.49.68-2.34,1.09a7,7,0,0,0-1.15.52l-2.92,1.39c-.81.39-1.22.48-1.24.29,1.56-.69,2.92-1.31,4.09-1.86l3.82-1.77c.4-.2.86-.42,1.34-.63a10.78,10.78,0,0,1-2.24.48,1.1,1.1,0,0,1-.92-.22,3.76,3.76,0,0,1-.32-.55.82.82,0,0,0-.17-.42A.71.71,0,0,0,259,91a4.32,4.32,0,0,0-1.19.1,18.64,18.64,0,0,0-2.79.33,21.55,21.55,0,0,1-4.17.2c-.63-.17-.58-.61.17-1.36a29.52,29.52,0,0,1,5.29-3.56,10.93,10.93,0,0,1,2-1.31c.41-.22.88-.45,1.43-.73a1.87,1.87,0,0,1,.62-.3.21.21,0,0,1,.17-.1,1.39,1.39,0,0,1,.27-.21,2.5,2.5,0,0,0,.53-.3,1.21,1.21,0,0,1,.46-.12l1.42-.82a16.53,16.53,0,0,0,1.8-.73.79.79,0,0,1,.27-.1c.9-.42,1.84-.81,2.8-1.17a.24.24,0,0,1,.07-.18.25.25,0,0,1,.09-.19.61.61,0,0,0-.19,0h-.19a.94.94,0,0,1-.37.11c-.49.09-1,.21-1.54.34s-1.38.36-2.11.58h-.37c-.17.07-.39.13-.63.22l-.54.2a1.63,1.63,0,0,0-.54.12l1-.59,1.07-.72,2-1.2L268,78.29a9.42,9.42,0,0,1,1.32-.73.64.64,0,0,0,.07-.27c.05-.14.12-.26.17-.39a9.33,9.33,0,0,1,2.1-2.62c.51-.51,1.05-1.1,1.61-1.74a10,10,0,0,1,1.7-1,1.72,1.72,0,0,0-.22.66,4.91,4.91,0,0,0-.39,1,6.9,6.9,0,0,1,.88-1.81,3.47,3.47,0,0,1,.71-.31q-.23.56-.45,1.14c-.16.49-.29,1-.45,1.41.16-.38.36-.85.63-1.43s.39-.85.54-1.24h.11a17.08,17.08,0,0,1-1.24,3,5,5,0,0,1-.32.66.25.25,0,0,0,.18-.1c.48-.21,1-.44,1.51-.71.31-.16.61-.29.9-.43s.82-.41,1.17-.61c.78-.29,1.6-.61,2.43-1a9.49,9.49,0,0,0,1.27-.54,12.86,12.86,0,0,0,1.34-.53,5.89,5.89,0,0,0,.92-.32c.59-.22,1.22-.43,1.9-.65l.35-.11.36-.21a.91.91,0,0,0,.46-.1,1.09,1.09,0,0,0,.36-.12l1.56-.44c1.93-.53,3.93-1.07,6-1.59s4.35-.9,6.62-1.26,4.58-.75,7-1a71.36,71.36,0,0,1,7.35-.28l.93.06h.93a.85.85,0,0,0,.38.09,6.22,6.22,0,0,1,1.22,0h.36a1.84,1.84,0,0,0,.47.06h.48l.56.07a18.59,18.59,0,0,1,2.15.17l.76.15a.85.85,0,0,1,.38.09.54.54,0,0,1,.18,0l.85.15.68.15.75.16a5.28,5.28,0,0,1,1.34.39H329a19.72,19.72,0,0,1,2.79,1,6.64,6.64,0,0,1,1.07.43,1.61,1.61,0,0,0,.28.17.25.25,0,0,1,.21.08l1.07.51a.24.24,0,0,1,.18.09,13.66,13.66,0,0,1,2.06,1.2,8.55,8.55,0,0,1,1.08.68c.27.19.56.39.9.61,0,.07,0,.1.1.09.19.18.43.39.7.62l.61.53c0,.07,0,.08.1.08.26.24.53.51.82.8s.4.48.61.71l.2.19c.11.14.22.29.32.44l.11.09.2.18s0,.08.07.09h0v.08a1.05,1.05,0,0,0,.2.27c.29.43.62.89,1,1.36s.73,1.1,1.09,1.72a4,4,0,0,0,.34.73.66.66,0,0,1,.12.27.4.4,0,0,1,.12.27c.13.24.29.51.44.81a.61.61,0,0,0,0,.19.3.3,0,0,1,.1.19.27.27,0,0,0,.1.17V81a5.12,5.12,0,0,0,.25.65c.17.54.34,1.07.49,1.56a1.22,1.22,0,0,0,0,.27c.1.44.18.9.3,1.39v1.66a20.2,20.2,0,0,1,0,3.3l.17-.14a4.82,4.82,0,0,1,1.68-1.21,26.49,26.49,0,0,1,2.61-1,.45.45,0,0,1,.27-.1c-.95-.14-2-.24-3.1-.31.86-.8,1.71-1.54,2.51-2.27s1.71-1.51,2.53-2.17a62.36,62.36,0,0,1,15.1-6.5.39.39,0,0,1,.27-.11,3.21,3.21,0,0,0,.54-.22c3-.81,7.47-2.18,13.46-4.08,4.48-1.35,9.14-2.77,14-4.31l1-1.18a16,16,0,0,1,1.69-1,2.28,2.28,0,0,1-.23.56c-.11.33-.19.63-.29,1a7.91,7.91,0,0,1,.88-1.71c.21-.08.42-.16.63-.22-.16.37-.31.8-.46,1.24a2.44,2.44,0,0,0-.14.46l.09-.09a1.4,1.4,0,0,0,.24-.47,9.56,9.56,0,0,0,.62-1.24,9.15,9.15,0,0,1-.59,1.69,8.94,8.94,0,0,1,1-.32h.09l.08-.08a28,28,0,0,1,4.94-1.27,2,2,0,0,0,.58.25.27.27,0,0,0,.25-.2.41.41,0,0,1,.08-.19.23.23,0,0,1,.17-.1.43.43,0,0,1,.16,0,.67.67,0,0,0,.15.14c0,.07,0,.1.1.08,2.55-.61,5-1.13,7.42-1.56H416a.19.19,0,0,1,.15.09v.08l.11.09a17.8,17.8,0,0,1,2.37-.58c.92-.17,1.8-.37,2.65-.59a9.07,9.07,0,0,1,2.2-.39s0-.09.06-.09,0,0,0-.1.08,0,.08-.1a.33.33,0,0,1,.19.08v.1h.27a.41.41,0,0,0,.19,0,.4.4,0,0,1,.18-.07,11.54,11.54,0,0,0,2.65-.59c.78-.23,1.61-.41,2.46-.58h.1a.41.41,0,0,0,.19.08h.64c.14,0,.21,0,.24-.07a.17.17,0,0,1,.14,0c.05-.07.12-.12.17-.19h.27a.34.34,0,0,1,.27-.1c.07,0,.1,0,.1.08v.09a1.77,1.77,0,0,0,.46-.07,4.37,4.37,0,0,0,.62-.17,2.23,2.23,0,0,1,.84-.22,1.16,1.16,0,0,1,.37-.07,4.23,4.23,0,0,0,.25-.58A12.07,12.07,0,0,1,435.48,58a9.91,9.91,0,0,1,.24,1.08,6.74,6.74,0,0,1,0-1.27l.59-.44c.12.44.24.87.34,1.31a.89.89,0,0,0,.08.32,3,3,0,0,1,0-.85.87.87,0,0,0-.07-.42v-.1a1,1,0,0,0-.07-.55h.12a.87.87,0,0,1,.07.42c.07.16.14.31.19.46a2.89,2.89,0,0,0,0,.83v.33a8.31,8.31,0,0,0,.11,1.17c.5-1.34,1.19-1.89,2.07-1.63A4.91,4.91,0,0,1,441.41,61a4,4,0,0,1-.17-.49,1.2,1.2,0,0,1-.07-.53c0-.17.05-.25.14-.25.52-.07.81.07.86.42a3.49,3.49,0,0,1-.1,1.16,2,2,0,0,1-.05.56.5.5,0,0,0,.07.39.51.51,0,0,0,.51-.48,5,5,0,0,0,0-1,2.42,2.42,0,0,1-.13-1,1,1,0,0,1,.41-.72,6.61,6.61,0,0,0,.57,1,3.32,3.32,0,0,1,.34.68,3.06,3.06,0,0,1,.22.77c.44,0,.66-.06.65-.29a2.3,2.3,0,0,0-.33-.94,2,2,0,0,1-.22-.66c0-.22.06-.34.21-.39.12.36.2.65.27.87a6,6,0,0,1,.15.76,2.43,2.43,0,0,1,.17.54,1.52,1.52,0,0,1,.77-.79,5.13,5.13,0,0,1,1-.34,2.57,2.57,0,0,0,.81-.22,2.26,2.26,0,0,0,.62-.44c.29-.23.57-.47.84-.73a5.53,5.53,0,0,1,2.18-1.48c.69-.22,1.52.08,2.51.9a2,2,0,0,1,.86,1A6.49,6.49,0,0,1,455,61c.42-.58.81-1.21,1.19-1.85a7.22,7.22,0,0,1,1.06.66,30.54,30.54,0,0,1,2.87,1.93,10.56,10.56,0,0,1,1.43,1.77,23.79,23.79,0,0,1,1.39,2.05,40.47,40.47,0,0,1,2,4.46c0,.07,0,.1.12.12a.59.59,0,0,1,.06.32c.31.82.72,1.85,1.21,3.11a.27.27,0,0,1,.08.22c.26.59.53,1.22.85,1.88l1,2.24a2.33,2.33,0,0,1,.2.34c.32.68.66,1.38,1.05,2.14a14.16,14.16,0,0,1,.87,1.58,5.23,5.23,0,0,1,.49.9,1.31,1.31,0,0,1,.29.56c.39.61.8,1.25,1.19,1.93a.35.35,0,0,1,.08.22c.46.77.92,1.5,1.39,2.17v.12a9.25,9.25,0,0,1,1.46,2.6,1.21,1.21,0,0,0-.37.47.49.49,0,0,0,.17,0,.49.49,0,0,0,.17,0h.22a.43.43,0,0,0,0,.16h-.12l-.11.08v.1a28.73,28.73,0,0,1,1.22,2.79.09.09,0,0,1,.12-.09,3.47,3.47,0,0,1,.34-.59,1,1,0,0,0,.12-.72c.37-.73.78-1.52,1.24-2.37A42.06,42.06,0,0,0,481,84.54l.12-.2v-.41a.41.41,0,0,1,.24-.08Q489.28,69.93,498,56.51a11.12,11.12,0,0,1,3-2.46c.79-.52,1.61-1.08,2.41-1.69a17.62,17.62,0,0,1,2.22-.87,2.27,2.27,0,0,1-.39.58,6.21,6.21,0,0,1-.68,1.27,10,10,0,0,1,1.53-1.9,8.12,8.12,0,0,1,.81-.22c-.27.53-.54,1-.81,1.48s-.53.81-.78,1.27c.25-.39.59-.87,1-1.44s.75-1,1-1.36a15.32,15.32,0,0,1-2,3.22,12.81,12.81,0,0,0-1.41,1.94c2-1.72,3-2,3.25-.87S507,58.3,506,60.74a4.85,4.85,0,0,1,.29-.49,4.54,4.54,0,0,1,.64-.87c.2-.22.36-.34.42-.32a1,1,0,0,1,.07,1.41h0A13.59,13.59,0,0,1,506,62.15c-.33.37-.63.69-.87.93a1.23,1.23,0,0,0-.41.7c.29.17.6,0,.94-.36s.73-1,1.17-1.6a18.31,18.31,0,0,1,1.22-1.67,1.66,1.66,0,0,1,1.14-.77,12.22,12.22,0,0,0-.87,2,10.11,10.11,0,0,1-1.59,2.85q.27.57.57.39a1.54,1.54,0,0,0,.58-.73c.19-.35.41-.76.68-1.22a6.56,6.56,0,0,1,.63-1.34c.22-.35.42-.46.64-.29-.08.14-.19.26-.27.39-.36.67-.68,1.23-1,1.72s-.63,1.05-1,1.71a2,2,0,0,1,1.4-.56,2.42,2.42,0,0,1,1.08.46,2,2,0,0,0,.77.36,1.31,1.31,0,0,0,.91-.16l1.63-.42a11.8,11.8,0,0,1,2.26-.61,1.14,1.14,0,0,1,1.34.69,5.49,5.49,0,0,1-.29,3.18,5.67,5.67,0,0,1-.78,2.53c-.54,1-1.17,2.17-1.88,3.34,1-.65,2.12-1.36,3.24-2.12A7.08,7.08,0,0,0,517,73Z" fill="#fff"/><path d="M487,207.52a1.24,1.24,0,0,0,.16.68l.23-.25-.19-1.32Z" fill="#fff"/><path d="M384.65,95.91a1.75,1.75,0,0,0-.55.12,1,1,0,0,0-.44.31,18.22,18.22,0,0,1-1.9.74c-.47.16-1,.29-1.46.44a14.34,14.34,0,0,0-3.14,1.36L377,99a.64.64,0,0,0-.27.11h-.18q-5.1,1.56-10.18,3.19c-4.25,1.26-8.45,2.58-12.63,4a6.3,6.3,0,0,1-2.12.1l-.68-.15a14,14,0,0,0-2.24-.08c-.64-.22-1.22-.44-1.73-.66a5.59,5.59,0,0,0,.87-.38,5.36,5.36,0,0,1-1.26.21A1.62,1.62,0,0,1,346,105l2.17-.85a7.93,7.93,0,0,1-1.27.34c-.39.13-.79.25-1.19.34a11.47,11.47,0,0,1,2.71-1c.61-.15,1.12-.31,1.55-.46-1.92,0-2.7-.35-2.34-1.19a3.51,3.51,0,0,1,1.2-1.25,9.67,9.67,0,0,1,2.29-1.51.34.34,0,0,0-.27.1c-.24.07-.49.17-.76.27a2.34,2.34,0,0,1-.68.17c-.19,0-.29,0-.29-.07a.71.71,0,0,1,.41-.73,3.72,3.72,0,0,1,1.17-.37h.74a3.26,3.26,0,0,0,1-.11,1.11,1.11,0,0,0,.6-.25c-.09-.25-.34-.32-.79-.25a14.23,14.23,0,0,0-1.45.35.94.94,0,0,0-.28.1,10.32,10.32,0,0,1-1.35.36,1,1,0,0,1-.95-.15c.42-.21.86-.44,1.34-.72a1.68,1.68,0,0,0,.52-.3,7.38,7.38,0,0,1,1.9-.75c0-.3,0-.47-.18-.49a1.58,1.58,0,0,0-.68.12,7,7,0,0,0-1,.47,3.35,3.35,0,0,1-1,.41c-.3.09-.49.07-.56,0,.78-.29,1.45-.54,2-.76.35-.14.78-.31,1.25-.53a1.69,1.69,0,0,1-1.13-.35,1.66,1.66,0,0,1-.44-.77,2.62,2.62,0,0,0-.34-.64,1.52,1.52,0,0,0-.68-.43c-.46-.17-.9-.34-1.36-.49a6.79,6.79,0,0,1-1-.47,4.35,4.35,0,0,1-.2.89c-.07.3-.2.63-.29,1a9.4,9.4,0,0,1-.39,1c-.15.49-.32,1-.53,1.51-.05.18-.1.33-.15.47-.25.56-.52,1.14-.78,1.71,0,.07-.12.12-.17.19-.15.32-.32.65-.47,1l-.41.76v.11c-1.11,1.78-2.26,3.49-3.5,5.1a83.13,83.13,0,0,1-8.35,9.15,116.09,116.09,0,0,1-10,8.11A162.82,162.82,0,0,1,298.08,138c-3.77,1.85-7.6,3.6-11.51,5.21a8,8,0,0,0,1.16.41l.3.12a.14.14,0,0,0,.17,0h.14a.19.19,0,0,1,.15.08l.24.12.15.14a.33.33,0,0,0,.07.13.17.17,0,0,0,.14,0,.31.31,0,0,1,.2.07.38.38,0,0,0,.29.09,1.92,1.92,0,0,0,.61.25,1.22,1.22,0,0,1,.54.25c2.63,1,5.22,1.92,7.79,2.79,2.24.76,4.48,1.58,6.74,2.46a.37.37,0,0,1,.18.08l.54.31.53.25c.2.09.53.21,1,.38.19.08.38.14.57.2l.34.07.34.12a3.49,3.49,0,0,1,.65.06c0,.07.07.11.2.14l.39.12.53.15a.9.9,0,0,0,.32.09l.1.08-.08.1v.09c.26.12.67.27,1.24.46s1.22.39,1.92.59c.9.27,1.7.54,2.39.81s1.46.56,2.23.83a40.57,40.57,0,0,0,4.51,1.65c-2.6-.63-4.38-.66-5.31-.12a24.63,24.63,0,0,0,4.61,1.73,22.77,22.77,0,0,1,3.86,1.39c.76.21,1.27.34,1.56.43a5.82,5.82,0,0,1-1.09-.26l-.47-.17c-1.67-.47-3.74-1.08-6.23-1.83s-4.46-1.37-5.92-1.85a7,7,0,0,0-2.94-.51c-.61.09-.71.46-.29,1.12a48.48,48.48,0,0,0,5.58,2.06,34.26,34.26,0,0,1,3.84,1.22s0,.08.1.08a2.43,2.43,0,0,1,.43.63Q328,163,335,165a131,131,0,0,0,14.09,3.32c.88.14,1.91.38,3.14.68l1.61.39a30.64,30.64,0,0,0,6.24,1,1.43,1.43,0,0,0,.46.07.75.75,0,0,0,.39.07.52.52,0,0,0,.29.09,1.75,1.75,0,0,0,.56.06,3,3,0,0,0,.66.07c.24.05.53.09.85.14a25.68,25.68,0,0,1-3.6.46c1.43-.07,2.78-.21,4.07-.4a1,1,0,0,1,.34,0,70.1,70.1,0,0,1,3.06-13.88,3.1,3.1,0,0,0,.2-.85q1.35-4,3.77-12.23c1.61-5.5,3.24-11.15,4.85-16.94V127a34.74,34.74,0,0,1,1.39-4.45,1,1,0,0,0,.44-.3V122a.53.53,0,0,1-.12-.14,2.25,2.25,0,0,1,.08-.24v-.1H378c.07,0,.09,0,.09-.1.51-1.44,1-2.87,1.51-4.26.59-2.51,1.25-5,2-7.53a21.94,21.94,0,0,1,1-2c.1-.37.19-.76.29-1.13a1,1,0,0,1,.22-.56,3.93,3.93,0,0,1,.19-.58.88.88,0,0,0,0-.64c.18-.7.4-1.45.64-2.28A28.18,28.18,0,0,0,385.26,97l.07-.19v-.18a.34.34,0,0,0,.09-.19c0-.07,0-.1.08-.1a4.34,4.34,0,0,1,.14-.48c.05-.11.1-.25.15-.37l-.52.2A1.66,1.66,0,0,1,384.65,95.91Z" fill="#fff"/><path d="M218,221.37V221l-1.12-.48A2.77,2.77,0,0,0,218,221.37Z" fill="#fff"/><path d="M110.52,229.44a.15.15,0,0,1,0-.13l-.12.11Z" fill="#fff"/></svg>